<svg xmlns="http://www.w3.org/2000/svg" xmlns:xlink="http://www.w3.org/1999/xlink" width="500" zoomAndPan="magnify" viewBox="0 0 375 374.999991" height="500" preserveAspectRatio="xMidYMid meet" version="1.0"><defs><clipPath id="id1"><path d="M 73 6.421875 L 319 6.421875 L 319 368.671875 L 73 368.671875 Z M 73 6.421875 " clip-rule="nonzero"/></clipPath></defs><path fill="#e0e0e0" d="M 272.335938 334.199219 C 272.335938 335.15625 272.203125 336.109375 271.941406 337.0625 C 271.679688 338.015625 271.285156 338.960938 270.761719 339.898438 C 270.238281 340.835938 269.589844 341.761719 268.8125 342.679688 C 268.03125 343.59375 267.132812 344.496094 266.105469 345.378906 C 265.082031 346.261719 263.9375 347.125 262.671875 347.96875 C 261.410156 348.8125 260.03125 349.632812 258.542969 350.429688 C 257.054688 351.222656 255.460938 351.992188 253.761719 352.730469 C 252.058594 353.472656 250.261719 354.179688 248.367188 354.855469 C 246.472656 355.53125 244.488281 356.175781 242.417969 356.78125 C 240.34375 357.386719 238.195312 357.957031 235.96875 358.488281 C 233.738281 359.019531 231.441406 359.511719 229.078125 359.960938 C 226.714844 360.414062 224.296875 360.824219 221.820312 361.1875 C 219.34375 361.554688 216.824219 361.875 214.257812 362.15625 C 211.695312 362.433594 209.097656 362.664062 206.46875 362.851562 C 203.839844 363.039062 201.191406 363.179688 198.527344 363.273438 C 195.859375 363.367188 193.183594 363.414062 190.503906 363.414062 C 187.824219 363.414062 185.152344 363.367188 182.484375 363.273438 C 179.816406 363.179688 177.167969 363.039062 174.539062 362.851562 C 171.914062 362.664062 169.316406 362.433594 166.75 362.15625 C 164.1875 361.875 161.667969 361.554688 159.191406 361.1875 C 156.714844 360.824219 154.292969 360.414062 151.929688 359.960938 C 149.566406 359.511719 147.269531 359.019531 145.042969 358.488281 C 142.816406 357.957031 140.664062 357.386719 138.59375 356.78125 C 136.519531 356.175781 134.539062 355.53125 132.644531 354.855469 C 130.746094 354.179688 128.949219 353.472656 127.25 352.730469 C 125.550781 351.992188 123.953125 351.222656 122.464844 350.429688 C 120.976562 349.632812 119.601562 348.8125 118.335938 347.96875 C 117.074219 347.125 115.929688 346.261719 114.902344 345.378906 C 113.878906 344.496094 112.976562 343.59375 112.199219 342.679688 C 111.421875 341.761719 110.769531 340.835938 110.246094 339.898438 C 109.726562 338.960938 109.332031 338.015625 109.070312 337.0625 C 108.808594 336.109375 108.675781 335.15625 108.675781 334.199219 C 108.675781 333.242188 108.808594 332.289062 109.070312 331.335938 C 109.332031 330.382812 109.726562 329.4375 110.246094 328.5 C 110.769531 327.5625 111.421875 326.632812 112.199219 325.71875 C 112.976562 324.800781 113.878906 323.902344 114.902344 323.019531 C 115.929688 322.136719 117.074219 321.269531 118.335938 320.425781 C 119.601562 319.582031 120.976562 318.765625 122.464844 317.96875 C 123.953125 317.171875 125.550781 316.40625 127.25 315.664062 C 128.949219 314.925781 130.746094 314.21875 132.644531 313.542969 C 134.539062 312.863281 136.519531 312.222656 138.59375 311.617188 C 140.664062 311.007812 142.816406 310.441406 145.042969 309.910156 C 147.269531 309.375 149.566406 308.886719 151.929688 308.433594 C 154.292969 307.984375 156.714844 307.574219 159.191406 307.207031 C 161.667969 306.84375 164.1875 306.519531 166.75 306.242188 C 169.316406 305.964844 171.914062 305.734375 174.539062 305.546875 C 177.167969 305.359375 179.816406 305.21875 182.484375 305.125 C 185.152344 305.03125 187.824219 304.984375 190.503906 304.984375 C 193.183594 304.984375 195.859375 305.03125 198.527344 305.125 C 201.191406 305.21875 203.839844 305.359375 206.46875 305.546875 C 209.097656 305.734375 211.695312 305.964844 214.257812 306.242188 C 216.824219 306.519531 219.34375 306.84375 221.820312 307.207031 C 224.296875 307.574219 226.714844 307.984375 229.078125 308.433594 C 231.441406 308.886719 233.738281 309.375 235.96875 309.910156 C 238.195312 310.441406 240.34375 311.007812 242.417969 311.617188 C 244.488281 312.222656 246.472656 312.863281 248.367188 313.542969 C 250.261719 314.21875 252.058594 314.925781 253.761719 315.664062 C 255.460938 316.40625 257.054688 317.171875 258.542969 317.96875 C 260.03125 318.765625 261.410156 319.582031 262.671875 320.425781 C 263.9375 321.269531 265.082031 322.136719 266.105469 323.019531 C 267.132812 323.902344 268.03125 324.800781 268.8125 325.71875 C 269.589844 326.632812 270.238281 327.5625 270.761719 328.5 C 271.285156 329.4375 271.679688 330.382812 271.941406 331.335938 C 272.203125 332.289062 272.335938 333.242188 272.335938 334.199219 Z M 272.335938 334.199219 " fill-opacity="1" fill-rule="nonzero"/><path fill="#d4483f" d="M 291.214844 170.601562 C 323.359375 101.832031 277.417969 17.582031 197.695312 12.847656 C 195.296875 12.847656 192.84375 12.847656 190.386719 12.847656 C 187.933594 12.847656 185.476562 12.847656 183.082031 12.847656 C 98.210938 17.929688 51.628906 113.519531 97.335938 184.214844 L 190.503906 328.355469 L 235.804688 258.242188 Z M 291.214844 170.601562 " fill-opacity="1" fill-rule="nonzero"/><path fill="#e0e0e0" d="M 272.335938 123.859375 C 272.335938 125.199219 272.300781 126.535156 272.234375 127.875 C 272.171875 129.210938 272.070312 130.546875 271.941406 131.878906 C 271.808594 133.210938 271.644531 134.539062 271.449219 135.863281 C 271.253906 137.1875 271.023438 138.503906 270.761719 139.816406 C 270.5 141.132812 270.207031 142.4375 269.882812 143.734375 C 269.558594 145.035156 269.199219 146.324219 268.8125 147.605469 C 268.421875 148.886719 268.003906 150.15625 267.550781 151.417969 C 267.101562 152.675781 266.617188 153.925781 266.105469 155.164062 C 265.59375 156.398438 265.050781 157.621094 264.476562 158.832031 C 263.90625 160.042969 263.304688 161.238281 262.671875 162.417969 C 262.039062 163.601562 261.382812 164.765625 260.691406 165.914062 C 260.003906 167.0625 259.289062 168.191406 258.542969 169.304688 C 257.800781 170.417969 257.027344 171.511719 256.230469 172.585938 C 255.433594 173.664062 254.609375 174.71875 253.761719 175.753906 C 252.910156 176.785156 252.035156 177.800781 251.136719 178.792969 C 250.238281 179.785156 249.3125 180.753906 248.367188 181.699219 C 247.421875 182.648438 246.449219 183.570312 245.457031 184.46875 C 244.464844 185.367188 243.453125 186.242188 242.417969 187.089844 C 241.382812 187.941406 240.328125 188.761719 239.25 189.5625 C 238.175781 190.359375 237.082031 191.128906 235.96875 191.871094 C 234.855469 192.617188 233.722656 193.332031 232.574219 194.019531 C 231.425781 194.707031 230.261719 195.367188 229.078125 196 C 227.898438 196.628906 226.703125 197.230469 225.492188 197.804688 C 224.28125 198.378906 223.058594 198.917969 221.820312 199.433594 C 220.582031 199.945312 219.332031 200.425781 218.074219 200.875 C 216.8125 201.328125 215.539062 201.746094 214.257812 202.136719 C 212.976562 202.523438 211.6875 202.882812 210.386719 203.207031 C 209.089844 203.53125 207.78125 203.824219 206.46875 204.085938 C 205.15625 204.347656 203.835938 204.578125 202.511719 204.773438 C 201.1875 204.96875 199.859375 205.132812 198.527344 205.265625 C 197.191406 205.394531 195.859375 205.492188 194.519531 205.558594 C 193.183594 205.625 191.84375 205.660156 190.503906 205.660156 C 189.164062 205.660156 187.828125 205.625 186.488281 205.558594 C 185.152344 205.492188 183.816406 205.394531 182.484375 205.265625 C 181.152344 205.132812 179.824219 204.96875 178.5 204.773438 C 177.171875 204.578125 175.855469 204.347656 174.539062 204.085938 C 173.226562 203.824219 171.921875 203.53125 170.621094 203.207031 C 169.324219 202.882812 168.03125 202.523438 166.75 202.136719 C 165.46875 201.746094 164.199219 201.328125 162.9375 200.875 C 161.675781 200.425781 160.425781 199.945312 159.191406 199.433594 C 157.953125 198.917969 156.730469 198.378906 155.519531 197.804688 C 154.308594 197.230469 153.113281 196.628906 151.929688 196 C 150.75 195.367188 149.585938 194.707031 148.4375 194.019531 C 147.289062 193.332031 146.15625 192.617188 145.042969 191.871094 C 143.929688 191.128906 142.835938 190.359375 141.757812 189.5625 C 140.683594 188.761719 139.628906 187.941406 138.59375 187.089844 C 137.558594 186.242188 136.542969 185.367188 135.550781 184.46875 C 134.558594 183.570312 133.589844 182.648438 132.644531 181.699219 C 131.695312 180.753906 130.773438 179.785156 129.875 178.792969 C 128.972656 177.800781 128.097656 176.785156 127.25 175.753906 C 126.398438 174.71875 125.578125 173.664062 124.777344 172.585938 C 123.980469 171.511719 123.210938 170.417969 122.464844 169.304688 C 121.722656 168.191406 121.007812 167.0625 120.316406 165.914062 C 119.628906 164.765625 118.96875 163.601562 118.335938 162.417969 C 117.707031 161.238281 117.105469 160.042969 116.53125 158.832031 C 115.960938 157.621094 115.417969 156.398438 114.902344 155.164062 C 114.390625 153.925781 113.910156 152.675781 113.457031 151.417969 C 113.007812 150.15625 112.585938 148.886719 112.199219 147.605469 C 111.808594 146.324219 111.453125 145.035156 111.128906 143.734375 C 110.800781 142.4375 110.507812 141.132812 110.246094 139.816406 C 109.988281 138.503906 109.757812 137.1875 109.5625 135.863281 C 109.363281 134.539062 109.199219 133.210938 109.070312 131.878906 C 108.9375 130.546875 108.839844 129.210938 108.773438 127.875 C 108.707031 126.535156 108.675781 125.199219 108.675781 123.859375 C 108.675781 122.519531 108.707031 121.183594 108.773438 119.847656 C 108.839844 118.507812 108.9375 117.175781 109.070312 115.84375 C 109.199219 114.511719 109.363281 113.183594 109.5625 111.859375 C 109.757812 110.535156 109.988281 109.214844 110.246094 107.902344 C 110.507812 106.589844 110.800781 105.28125 111.128906 103.984375 C 111.453125 102.6875 111.808594 101.394531 112.199219 100.113281 C 112.585938 98.835938 113.007812 97.5625 113.457031 96.304688 C 113.910156 95.042969 114.390625 93.792969 114.902344 92.558594 C 115.417969 91.320312 115.960938 90.097656 116.53125 88.886719 C 117.105469 87.675781 117.707031 86.480469 118.335938 85.300781 C 118.96875 84.121094 119.628906 82.957031 120.316406 81.808594 C 121.007812 80.660156 121.722656 79.527344 122.464844 78.414062 C 123.210938 77.300781 123.980469 76.207031 124.777344 75.132812 C 125.578125 74.058594 126.398438 73.003906 127.25 71.96875 C 128.097656 70.933594 128.972656 69.917969 129.875 68.925781 C 130.773438 67.933594 131.695312 66.964844 132.644531 66.019531 C 133.589844 65.074219 134.558594 64.148438 135.550781 63.25 C 136.542969 62.351562 137.558594 61.476562 138.59375 60.628906 C 139.628906 59.78125 140.683594 58.957031 141.757812 58.160156 C 142.835938 57.363281 143.929688 56.589844 145.042969 55.847656 C 146.15625 55.101562 147.289062 54.386719 148.4375 53.699219 C 149.585938 53.011719 150.75 52.351562 151.929688 51.71875 C 153.113281 51.089844 154.308594 50.488281 155.519531 49.914062 C 156.730469 49.34375 157.953125 48.800781 159.191406 48.289062 C 160.425781 47.777344 161.675781 47.292969 162.9375 46.84375 C 164.199219 46.390625 165.46875 45.972656 166.75 45.582031 C 168.03125 45.195312 169.324219 44.839844 170.621094 44.511719 C 171.921875 44.1875 173.226562 43.894531 174.539062 43.632812 C 175.855469 43.371094 177.171875 43.144531 178.5 42.945312 C 179.824219 42.75 181.152344 42.585938 182.484375 42.457031 C 183.816406 42.324219 185.152344 42.226562 186.488281 42.160156 C 187.828125 42.09375 189.164062 42.0625 190.503906 42.0625 C 191.84375 42.0625 193.183594 42.09375 194.519531 42.160156 C 195.859375 42.226562 197.191406 42.324219 198.527344 42.457031 C 199.859375 42.585938 201.1875 42.75 202.511719 42.945312 C 203.835938 43.144531 205.15625 43.371094 206.46875 43.632812 C 207.78125 43.894531 209.089844 44.1875 210.386719 44.511719 C 211.6875 44.839844 212.976562 45.195312 214.257812 45.582031 C 215.539062 45.972656 216.8125 46.390625 218.074219 46.84375 C 219.332031 47.292969 220.582031 47.777344 221.820312 48.289062 C 223.058594 48.800781 224.28125 49.34375 225.492188 49.914062 C 226.703125 50.488281 227.898438 51.089844 229.078125 51.71875 C 230.261719 52.351562 231.425781 53.011719 232.574219 53.699219 C 233.722656 54.386719 234.855469 55.101562 235.96875 55.847656 C 237.082031 56.589844 238.175781 57.363281 239.25 58.160156 C 240.328125 58.957031 241.382812 59.78125 242.417969 60.628906 C 243.453125 61.476562 244.464844 62.351562 245.457031 63.25 C 246.449219 64.148438 247.421875 65.074219 248.367188 66.019531 C 249.3125 66.964844 250.238281 67.933594 251.136719 68.925781 C 252.035156 69.917969 252.910156 70.933594 253.761719 71.96875 C 254.609375 73.003906 255.433594 74.058594 256.230469 75.132812 C 257.027344 76.207031 257.800781 77.300781 258.542969 78.414062 C 259.289062 79.527344 260.003906 80.660156 260.691406 81.808594 C 261.382812 82.957031 262.039062 84.121094 262.671875 85.300781 C 263.304688 86.480469 263.90625 87.675781 264.476562 88.886719 C 265.050781 90.097656 265.59375 91.320312 266.105469 92.558594 C 266.617188 93.792969 267.101562 95.042969 267.550781 96.304688 C 268.003906 97.5625 268.421875 98.835938 268.8125 100.113281 C 269.199219 101.394531 269.558594 102.6875 269.882812 103.984375 C 270.207031 105.28125 270.5 106.589844 270.761719 107.902344 C 271.023438 109.214844 271.253906 110.535156 271.449219 111.859375 C 271.644531 113.183594 271.808594 114.511719 271.941406 115.84375 C 272.070312 117.175781 272.171875 118.507812 272.234375 119.847656 C 272.300781 121.183594 272.335938 122.519531 272.335938 123.859375 Z M 272.335938 123.859375 " fill-opacity="1" fill-rule="nonzero"/><path fill="#f5f5f5" d="M 190.503906 42.0625 C 189.164062 42.0625 187.828125 42.09375 186.488281 42.160156 C 185.152344 42.226562 183.816406 42.324219 182.484375 42.457031 C 181.152344 42.585938 179.824219 42.75 178.5 42.945312 C 177.171875 43.144531 175.855469 43.371094 174.539062 43.632812 C 173.226562 43.894531 171.921875 44.1875 170.621094 44.511719 C 169.324219 44.839844 168.03125 45.195312 166.75 45.582031 C 165.46875 45.972656 164.199219 46.390625 162.9375 46.84375 C 161.675781 47.292969 160.425781 47.777344 159.191406 48.289062 C 157.953125 48.800781 156.730469 49.34375 155.519531 49.914062 C 154.308594 50.488281 153.113281 51.089844 151.929688 51.71875 C 150.75 52.351562 149.585938 53.011719 148.4375 53.699219 C 147.289062 54.386719 146.15625 55.101562 145.042969 55.847656 C 143.929688 56.589844 142.835938 57.363281 141.757812 58.160156 C 140.683594 58.957031 139.628906 59.78125 138.59375 60.628906 C 137.558594 61.476562 136.542969 62.351562 135.550781 63.25 C 134.558594 64.148438 133.589844 65.074219 132.644531 66.019531 C 131.695312 66.964844 130.773438 67.9375 129.875 68.925781 C 128.972656 69.917969 128.097656 70.933594 127.25 71.96875 C 126.398438 73.003906 125.578125 74.058594 124.777344 75.132812 C 123.980469 76.207031 123.210938 77.300781 122.464844 78.414062 C 121.722656 79.527344 121.007812 80.660156 120.316406 81.808594 C 119.628906 82.957031 118.96875 84.121094 118.335938 85.300781 C 117.707031 86.480469 117.105469 87.675781 116.53125 88.886719 C 115.960938 90.097656 115.417969 91.320312 114.902344 92.558594 C 114.390625 93.792969 113.910156 95.042969 113.457031 96.304688 C 113.007812 97.5625 112.585938 98.835938 112.199219 100.113281 C 111.808594 101.394531 111.453125 102.6875 111.128906 103.984375 C 110.800781 105.28125 110.507812 106.589844 110.246094 107.902344 C 109.988281 109.214844 109.757812 110.535156 109.5625 111.859375 C 109.363281 113.183594 109.199219 114.511719 109.070312 115.84375 C 108.9375 117.175781 108.839844 118.507812 108.773438 119.847656 C 108.707031 121.183594 108.675781 122.519531 108.675781 123.859375 C 108.667969 131.046875 109.601562 138.105469 111.476562 145.042969 C 113.351562 151.980469 116.097656 158.554688 119.722656 164.757812 L 219.730469 164.757812 C 220.304688 164.757812 220.878906 164.730469 221.449219 164.675781 C 222.019531 164.617188 222.585938 164.535156 223.152344 164.421875 C 223.714844 164.308594 224.269531 164.171875 224.820312 164.003906 C 225.371094 163.835938 225.910156 163.644531 226.441406 163.425781 C 226.972656 163.207031 227.488281 162.960938 227.996094 162.6875 C 228.503906 162.417969 228.996094 162.125 229.472656 161.804688 C 229.949219 161.484375 230.410156 161.144531 230.855469 160.78125 C 231.296875 160.417969 231.722656 160.03125 232.128906 159.625 C 232.535156 159.21875 232.921875 158.792969 233.285156 158.351562 C 233.648438 157.90625 233.992188 157.445312 234.308594 156.96875 C 234.628906 156.492188 234.921875 156 235.195312 155.492188 C 235.464844 154.988281 235.710938 154.46875 235.929688 153.9375 C 236.148438 153.410156 236.34375 152.867188 236.507812 152.320312 C 236.675781 151.769531 236.816406 151.214844 236.929688 150.652344 C 237.039062 150.085938 237.125 149.519531 237.179688 148.949219 C 237.238281 148.378906 237.265625 147.804688 237.265625 147.230469 L 237.265625 56.785156 C 233.855469 54.40625 230.285156 52.300781 226.554688 50.464844 C 222.828125 48.628906 218.980469 47.089844 215.015625 45.839844 C 211.046875 44.59375 207.011719 43.652344 202.902344 43.019531 C 198.796875 42.382812 194.660156 42.066406 190.503906 42.0625 Z M 190.503906 42.0625 " fill-opacity="1" fill-rule="nonzero"/><path fill="#f7c244" d="M 260.644531 158.917969 C 256.050781 158.921875 251.53125 159.519531 247.09375 160.707031 C 242.652344 161.894531 238.441406 163.636719 234.460938 165.925781 L 213.886719 153.074219 L 221.660156 176.445312 C 219.488281 178.820312 217.554688 181.371094 215.859375 184.105469 C 214.164062 186.835938 212.734375 189.703125 211.566406 192.699219 C 210.402344 195.695312 209.523438 198.777344 208.929688 201.9375 C 208.339844 205.097656 208.042969 208.285156 208.039062 211.5 C 208.039062 213.222656 208.125 214.941406 208.292969 216.65625 C 208.460938 218.367188 208.714844 220.070312 209.050781 221.761719 C 209.386719 223.449219 209.804688 225.117188 210.304688 226.765625 C 210.804688 228.414062 211.386719 230.035156 212.042969 231.625 C 212.703125 233.214844 213.4375 234.769531 214.25 236.289062 C 215.0625 237.808594 215.949219 239.285156 216.90625 240.714844 C 217.863281 242.148438 218.886719 243.527344 219.980469 244.859375 C 221.074219 246.191406 222.230469 247.464844 223.449219 248.683594 C 224.664062 249.902344 225.941406 251.058594 227.273438 252.148438 C 228.605469 253.242188 229.988281 254.265625 231.417969 255.222656 C 232.851562 256.179688 234.328125 257.066406 235.847656 257.875 C 237.367188 258.6875 238.921875 259.425781 240.511719 260.082031 C 242.105469 260.742188 243.726562 261.320312 245.375 261.820312 C 247.023438 262.320312 248.691406 262.738281 250.382812 263.074219 C 252.070312 263.410156 253.773438 263.664062 255.488281 263.832031 C 257.203125 264 258.921875 264.085938 260.644531 264.085938 C 262.367188 264.085938 264.085938 264 265.800781 263.832031 C 267.515625 263.664062 269.21875 263.410156 270.90625 263.074219 C 272.597656 262.738281 274.265625 262.320312 275.914062 261.820312 C 277.5625 261.320312 279.183594 260.742188 280.777344 260.082031 C 282.367188 259.425781 283.921875 258.6875 285.441406 257.875 C 286.960938 257.066406 288.4375 256.179688 289.871094 255.222656 C 291.304688 254.265625 292.683594 253.242188 294.015625 252.148438 C 295.347656 251.058594 296.625 249.902344 297.839844 248.683594 C 299.058594 247.464844 300.214844 246.191406 301.308594 244.859375 C 302.402344 243.527344 303.425781 242.148438 304.382812 240.714844 C 305.339844 239.285156 306.226562 237.808594 307.039062 236.289062 C 307.851562 234.769531 308.585938 233.214844 309.246094 231.625 C 309.90625 230.035156 310.484375 228.414062 310.984375 226.765625 C 311.484375 225.117188 311.902344 223.449219 312.238281 221.761719 C 312.574219 220.070312 312.828125 218.367188 312.996094 216.65625 C 313.164062 214.941406 313.25 213.222656 313.25 211.5 C 313.25 209.777344 313.164062 208.0625 312.996094 206.347656 C 312.828125 204.632812 312.574219 202.929688 312.238281 201.242188 C 311.902344 199.554688 311.484375 197.882812 310.984375 196.238281 C 310.484375 194.589844 309.90625 192.96875 309.246094 191.378906 C 308.585938 189.785156 307.851562 188.230469 307.039062 186.710938 C 306.226562 185.195312 305.339844 183.71875 304.382812 182.285156 C 303.425781 180.855469 302.402344 179.472656 301.308594 178.140625 C 300.214844 176.808594 299.058594 175.535156 297.839844 174.316406 C 296.625 173.101562 295.347656 171.945312 294.015625 170.851562 C 292.683594 169.761719 291.304688 168.734375 289.871094 167.777344 C 288.4375 166.820312 286.960938 165.9375 285.441406 165.125 C 283.921875 164.3125 282.367188 163.578125 280.777344 162.917969 C 279.183594 162.261719 277.5625 161.679688 275.914062 161.179688 C 274.265625 160.679688 272.597656 160.261719 270.90625 159.925781 C 269.21875 159.589844 267.515625 159.339844 265.800781 159.167969 C 264.085938 159 262.367188 158.917969 260.644531 158.917969 Z M 260.644531 158.917969 " fill-opacity="1" fill-rule="nonzero"/><path fill="#f9ce69" d="M 260.644531 158.917969 C 256.050781 158.921875 251.53125 159.519531 247.09375 160.707031 C 242.652344 161.894531 238.441406 163.636719 234.460938 165.925781 L 213.886719 153.074219 L 221.660156 176.445312 C 220.785156 177.414062 219.949219 178.417969 219.148438 179.449219 C 218.351562 180.484375 217.589844 181.542969 216.871094 182.632812 C 216.152344 183.722656 215.476562 184.839844 214.839844 185.980469 C 214.207031 187.121094 213.613281 188.285156 213.066406 189.46875 C 212.519531 190.65625 212.015625 191.859375 211.558594 193.082031 C 211.101562 194.304688 210.691406 195.542969 210.328125 196.796875 C 209.960938 198.050781 209.644531 199.316406 209.378906 200.597656 C 209.109375 201.875 208.886719 203.160156 208.714844 204.453125 C 208.542969 205.75 208.417969 207.046875 208.34375 208.351562 C 208.269531 209.65625 208.246094 210.960938 208.269531 212.265625 C 208.292969 213.570312 208.363281 214.875 208.484375 216.171875 C 208.609375 217.472656 208.777344 218.765625 208.996094 220.054688 C 209.214844 221.339844 209.480469 222.617188 209.796875 223.886719 C 210.113281 225.152344 210.472656 226.40625 210.882812 227.648438 C 211.292969 228.886719 211.746094 230.109375 212.25 231.316406 C 212.75 232.523438 213.292969 233.707031 213.886719 234.871094 L 272.335938 234.871094 C 272.910156 234.871094 273.480469 234.84375 274.054688 234.789062 C 274.625 234.730469 275.191406 234.648438 275.753906 234.535156 C 276.320312 234.421875 276.875 234.285156 277.425781 234.117188 C 277.972656 233.949219 278.515625 233.757812 279.042969 233.539062 C 279.574219 233.316406 280.09375 233.074219 280.601562 232.800781 C 281.105469 232.53125 281.597656 232.238281 282.078125 231.917969 C 282.554688 231.597656 283.015625 231.257812 283.457031 230.894531 C 283.902344 230.527344 284.328125 230.144531 284.734375 229.738281 C 285.140625 229.332031 285.523438 228.90625 285.890625 228.464844 C 286.253906 228.019531 286.59375 227.558594 286.914062 227.082031 C 287.234375 226.605469 287.527344 226.113281 287.800781 225.605469 C 288.070312 225.101562 288.316406 224.582031 288.535156 224.050781 C 288.753906 223.519531 288.949219 222.980469 289.113281 222.433594 C 289.28125 221.882812 289.421875 221.328125 289.53125 220.761719 C 289.644531 220.199219 289.730469 219.632812 289.785156 219.0625 C 289.839844 218.492188 289.871094 217.917969 289.871094 217.34375 L 289.871094 167.796875 C 285.550781 164.894531 280.898438 162.6875 275.921875 161.175781 C 270.941406 159.660156 265.847656 158.910156 260.644531 158.917969 Z M 260.644531 158.917969 " fill-opacity="1" fill-rule="nonzero"/><g clip-path="url(#id1)"><path fill="#000000" d="M 260.644531 269.929688 C 262.121094 269.925781 263.59375 269.867188 265.066406 269.753906 C 266.539062 269.636719 268.003906 269.46875 269.460938 269.242188 C 270.921875 269.019531 272.367188 268.738281 273.804688 268.402344 C 275.242188 268.066406 276.664062 267.679688 278.074219 267.234375 C 279.480469 266.792969 280.871094 266.296875 282.242188 265.75 C 283.613281 265.203125 284.960938 264.601562 286.285156 263.953125 C 287.609375 263.304688 288.90625 262.605469 290.179688 261.855469 C 291.453125 261.109375 292.695312 260.3125 293.90625 259.46875 C 295.117188 258.628906 296.296875 257.742188 297.441406 256.808594 C 298.585938 255.878906 299.691406 254.902344 300.761719 253.886719 C 301.835938 252.871094 302.863281 251.820312 303.855469 250.726562 C 304.847656 249.632812 305.792969 248.503906 306.699219 247.335938 C 307.605469 246.171875 308.464844 244.972656 309.28125 243.742188 C 310.09375 242.511719 310.859375 241.253906 311.578125 239.964844 C 312.300781 238.675781 312.96875 237.363281 313.585938 236.023438 C 314.207031 234.683594 314.773438 233.324219 315.292969 231.941406 C 315.808594 230.558594 316.269531 229.160156 316.679688 227.742188 C 317.089844 226.324219 317.449219 224.894531 317.75 223.449219 C 318.050781 222.003906 318.296875 220.550781 318.488281 219.089844 C 318.679688 217.625 318.816406 216.15625 318.898438 214.683594 C 318.980469 213.210938 319.003906 211.738281 318.972656 210.261719 C 318.941406 208.785156 318.851562 207.316406 318.710938 205.847656 C 318.566406 204.378906 318.371094 202.917969 318.117188 201.464844 C 317.863281 200.011719 317.554688 198.570312 317.191406 197.136719 C 316.828125 195.707031 316.414062 194.292969 315.941406 192.894531 C 315.472656 191.496094 314.949219 190.117188 314.375 188.757812 C 313.800781 187.398438 313.175781 186.0625 312.5 184.753906 C 311.824219 183.441406 311.101562 182.15625 310.328125 180.898438 C 309.554688 179.644531 308.734375 178.417969 307.867188 177.222656 C 307.003906 176.027344 306.09375 174.867188 305.136719 173.742188 C 304.183594 172.613281 303.191406 171.527344 302.152344 170.476562 C 301.117188 169.425781 300.042969 168.414062 298.929688 167.445312 C 300.613281 163.25 302.054688 158.972656 303.242188 154.609375 C 304.433594 150.246094 305.367188 145.832031 306.046875 141.359375 C 306.726562 136.890625 307.144531 132.394531 307.304688 127.878906 C 307.460938 123.359375 307.359375 118.847656 306.996094 114.339844 C 306.632812 109.832031 306.007812 105.363281 305.125 100.925781 C 304.246094 96.492188 303.109375 92.121094 301.722656 87.820312 C 300.335938 83.515625 298.703125 79.304688 296.832031 75.191406 C 294.957031 71.078125 292.847656 67.082031 290.511719 63.210938 C 288.144531 59.152344 285.535156 55.253906 282.679688 51.519531 C 279.828125 47.785156 276.753906 44.238281 273.460938 40.886719 C 270.171875 37.53125 266.683594 34.394531 263 31.472656 C 259.316406 28.550781 255.46875 25.867188 251.453125 23.425781 C 247.4375 20.980469 243.289062 18.792969 239 16.867188 C 234.714844 14.9375 230.324219 13.28125 225.832031 11.894531 C 221.339844 10.511719 216.777344 9.410156 212.148438 8.59375 C 207.519531 7.773438 202.855469 7.246094 198.160156 7.003906 C 193.058594 6.710938 187.953125 6.710938 182.847656 7.003906 C 180.335938 7.136719 177.832031 7.351562 175.332031 7.648438 C 172.835938 7.945312 170.351562 8.324219 167.878906 8.78125 C 165.40625 9.242188 162.949219 9.785156 160.511719 10.40625 C 158.074219 11.03125 155.660156 11.734375 153.269531 12.515625 C 150.878906 13.296875 148.519531 14.15625 146.183594 15.09375 C 143.851562 16.03125 141.550781 17.046875 139.28125 18.136719 C 137.015625 19.222656 134.789062 20.386719 132.597656 21.625 C 130.40625 22.859375 128.261719 24.167969 126.15625 25.546875 C 124.050781 26.925781 121.996094 28.371094 119.988281 29.882812 C 117.980469 31.398438 116.023438 32.976562 114.121094 34.621094 C 112.214844 36.261719 110.367188 37.964844 108.574219 39.730469 C 106.785156 41.496094 105.050781 43.316406 103.382812 45.195312 C 101.710938 47.078125 100.101562 49.007812 98.558594 50.992188 C 97.015625 52.980469 95.539062 55.011719 94.128906 57.09375 C 92.71875 59.175781 91.378906 61.304688 90.109375 63.476562 C 88.84375 65.644531 87.644531 67.855469 86.523438 70.105469 C 85.351562 72.375 84.253906 74.683594 83.234375 77.023438 C 82.210938 79.367188 81.269531 81.742188 80.40625 84.144531 C 79.539062 86.550781 78.757812 88.980469 78.050781 91.433594 C 77.347656 93.890625 76.722656 96.367188 76.183594 98.863281 C 75.640625 101.363281 75.183594 103.875 74.808594 106.402344 C 74.433594 108.929688 74.140625 111.464844 73.929688 114.011719 C 73.722656 116.558594 73.597656 119.109375 73.558594 121.664062 C 73.515625 124.21875 73.5625 126.769531 73.6875 129.320312 C 73.816406 131.875 74.027344 134.417969 74.324219 136.957031 C 74.617188 139.492188 74.996094 142.019531 75.457031 144.53125 C 75.917969 147.042969 76.464844 149.539062 77.089844 152.015625 C 77.714844 154.492188 78.421875 156.949219 79.210938 159.378906 C 79.996094 161.808594 80.863281 164.210938 81.808594 166.582031 C 82.757812 168.957031 83.78125 171.296875 84.878906 173.601562 C 85.980469 175.910156 87.152344 178.175781 88.402344 180.40625 C 89.652344 182.632812 90.972656 184.820312 92.367188 186.960938 L 165.546875 300.542969 C 133.164062 304.167969 102.832031 315.5 102.832031 334.199219 C 102.832031 356.984375 148.011719 369.253906 190.503906 369.253906 C 232.996094 369.253906 278.179688 356.984375 278.179688 334.199219 C 278.179688 315.445312 248.019531 304.167969 215.464844 300.542969 L 238.140625 265.488281 C 245.347656 268.453125 252.851562 269.933594 260.644531 269.929688 Z M 307.40625 211.5 C 307.40625 212.445312 307.378906 213.390625 307.324219 214.332031 C 307.269531 215.277344 307.1875 216.21875 307.074219 217.15625 C 306.964844 218.09375 306.824219 219.027344 306.652344 219.957031 C 306.484375 220.886719 306.289062 221.8125 306.0625 222.726562 C 305.839844 223.644531 305.585938 224.554688 305.308594 225.457031 C 305.027344 226.359375 304.71875 227.253906 304.386719 228.136719 C 304.050781 229.023438 303.691406 229.894531 303.304688 230.757812 C 302.917969 231.617188 302.503906 232.46875 302.066406 233.304688 C 301.628906 234.140625 301.164062 234.964844 300.675781 235.773438 C 300.1875 236.582031 299.675781 237.375 299.136719 238.152344 C 298.601562 238.933594 298.042969 239.691406 297.457031 240.4375 C 296.875 241.179688 296.269531 241.90625 295.644531 242.613281 C 295.015625 243.320312 294.371094 244.007812 293.699219 244.675781 C 293.03125 245.34375 292.34375 245.992188 291.636719 246.617188 C 290.929688 247.242188 290.203125 247.847656 289.457031 248.429688 C 288.714844 249.011719 287.953125 249.570312 287.175781 250.109375 C 286.394531 250.644531 285.601562 251.15625 284.792969 251.644531 C 283.984375 252.132812 283.160156 252.59375 282.320312 253.03125 C 281.484375 253.46875 280.632812 253.882812 279.773438 254.269531 C 278.910156 254.65625 278.035156 255.015625 277.152344 255.347656 C 276.265625 255.683594 275.375 255.988281 274.472656 256.269531 C 273.566406 256.546875 272.65625 256.800781 271.738281 257.023438 C 270.820312 257.25 269.898438 257.445312 268.964844 257.613281 C 268.035156 257.78125 267.101562 257.921875 266.164062 258.03125 C 265.226562 258.144531 264.285156 258.226562 263.339844 258.28125 C 262.398438 258.335938 261.453125 258.359375 260.507812 258.359375 C 259.5625 258.355469 258.617188 258.324219 257.675781 258.265625 C 256.730469 258.203125 255.789062 258.117188 254.851562 258 C 253.914062 257.882812 252.980469 257.734375 252.050781 257.5625 C 251.121094 257.390625 250.199219 257.1875 249.28125 256.957031 C 248.367188 256.726562 247.457031 256.472656 246.554688 256.1875 C 245.652344 255.902344 244.761719 255.589844 243.878906 255.25 C 242.996094 254.914062 242.125 254.546875 241.265625 254.15625 C 240.40625 253.765625 239.558594 253.347656 238.722656 252.902344 C 237.886719 252.460938 237.066406 251.992188 236.261719 251.5 C 235.453125 251.007812 234.664062 250.492188 233.890625 249.949219 C 233.113281 249.410156 232.355469 248.847656 231.613281 248.257812 C 230.875 247.671875 230.152344 247.0625 229.445312 246.433594 C 228.742188 245.804688 228.058594 245.152344 227.394531 244.480469 C 226.730469 243.808594 226.085938 243.117188 225.464844 242.40625 C 224.839844 241.695312 224.238281 240.964844 223.660156 240.21875 C 223.082031 239.472656 222.527344 238.707031 221.996094 237.925781 C 221.464844 237.144531 220.957031 236.347656 220.472656 235.539062 C 219.988281 234.726562 219.53125 233.898438 219.097656 233.0625 C 218.664062 232.222656 218.253906 231.371094 217.871094 230.503906 C 217.492188 229.640625 217.136719 228.765625 216.808594 227.878906 C 216.476562 226.992188 216.175781 226.097656 215.902344 225.195312 C 215.625 224.289062 215.378906 223.378906 215.160156 222.460938 C 214.941406 221.542969 214.75 220.617188 214.585938 219.6875 C 214.425781 218.753906 214.289062 217.820312 214.183594 216.882812 C 214.074219 215.941406 214 215 213.949219 214.058594 C 213.898438 213.113281 213.878906 212.171875 213.886719 211.226562 C 213.894531 210.28125 213.929688 209.335938 213.996094 208.394531 C 214.0625 207.453125 214.15625 206.511719 214.277344 205.574219 C 214.398438 204.636719 214.550781 203.707031 214.730469 202.777344 C 214.90625 201.851562 215.113281 200.929688 215.347656 200.011719 C 215.582031 199.097656 215.84375 198.191406 216.136719 197.292969 C 216.425781 196.390625 216.742188 195.503906 217.085938 194.621094 C 217.429688 193.742188 217.800781 192.871094 218.195312 192.015625 C 218.589844 191.15625 219.015625 190.3125 219.460938 189.480469 C 219.910156 188.648438 220.382812 187.832031 220.878906 187.027344 C 221.375 186.222656 221.898438 185.433594 222.441406 184.664062 C 222.988281 183.890625 223.554688 183.136719 224.144531 182.398438 C 224.738281 181.660156 225.347656 180.941406 225.984375 180.242188 C 226.335938 179.851562 226.628906 179.421875 226.863281 178.953125 C 227.097656 178.488281 227.265625 177.996094 227.371094 177.480469 C 227.472656 176.96875 227.503906 176.449219 227.46875 175.925781 C 227.433594 175.402344 227.328125 174.894531 227.152344 174.398438 L 224.582031 166.570312 L 231.363281 170.835938 C 231.804688 171.09375 232.277344 171.285156 232.769531 171.417969 C 233.265625 171.550781 233.769531 171.617188 234.285156 171.617188 C 234.796875 171.617188 235.300781 171.550781 235.796875 171.417969 C 236.292969 171.285156 236.761719 171.09375 237.207031 170.835938 C 238.980469 169.808594 240.8125 168.902344 242.703125 168.117188 C 244.597656 167.332031 246.53125 166.671875 248.511719 166.140625 C 250.492188 165.609375 252.496094 165.207031 254.527344 164.941406 C 256.558594 164.671875 258.601562 164.539062 260.648438 164.539062 C 262.699219 164.539062 264.738281 164.671875 266.769531 164.941406 C 268.800781 165.210938 270.808594 165.609375 272.785156 166.140625 C 274.765625 166.675781 276.699219 167.332031 278.59375 168.121094 C 280.484375 168.90625 282.316406 169.8125 284.089844 170.839844 C 285.863281 171.867188 287.5625 173.003906 289.183594 174.253906 C 290.808594 175.503906 292.34375 176.855469 293.789062 178.308594 C 295.234375 179.761719 296.578125 181.300781 297.820312 182.929688 C 299.0625 184.558594 300.195312 186.261719 301.214844 188.039062 C 302.234375 189.816406 303.132812 191.652344 303.910156 193.546875 C 304.6875 195.441406 305.335938 197.378906 305.859375 199.359375 C 306.382812 201.34375 306.773438 203.347656 307.03125 205.378906 C 307.289062 207.414062 307.414062 209.453125 307.40625 211.5 Z M 203.714844 198.589844 C 199.347656 199.378906 194.945312 199.785156 190.503906 199.816406 C 189.261719 199.816406 188.019531 199.785156 186.777344 199.722656 C 185.535156 199.664062 184.292969 199.570312 183.058594 199.449219 C 181.820312 199.328125 180.585938 199.175781 179.355469 198.992188 C 178.125 198.8125 176.902344 198.597656 175.679688 198.355469 C 174.460938 198.113281 173.25 197.839844 172.042969 197.539062 C 170.835938 197.238281 169.636719 196.90625 168.449219 196.542969 C 167.257812 196.183594 166.078125 195.792969 164.90625 195.375 C 163.734375 194.957031 162.574219 194.507812 161.425781 194.035156 C 160.277344 193.558594 159.140625 193.054688 158.015625 192.523438 C 156.894531 191.992188 155.78125 191.433594 154.6875 190.847656 C 153.589844 190.261719 152.507812 189.648438 151.441406 189.007812 C 150.375 188.371094 149.324219 187.707031 148.289062 187.015625 C 147.257812 186.324219 146.238281 185.609375 145.242188 184.867188 C 144.242188 184.128906 143.261719 183.363281 142.300781 182.574219 C 141.339844 181.785156 140.398438 180.972656 139.476562 180.140625 C 138.554688 179.304688 137.65625 178.449219 136.777344 177.570312 C 135.894531 176.691406 135.039062 175.789062 134.203125 174.867188 C 133.367188 173.949219 132.558594 173.007812 131.769531 172.046875 C 130.980469 171.085938 130.214844 170.105469 129.472656 169.105469 C 128.734375 168.109375 128.015625 167.09375 127.324219 166.058594 C 126.636719 165.023438 125.96875 163.976562 125.332031 162.910156 C 124.691406 161.84375 124.078125 160.761719 123.492188 159.664062 C 122.90625 158.570312 122.347656 157.457031 121.816406 156.335938 C 121.285156 155.210938 120.78125 154.074219 120.304688 152.925781 C 119.828125 151.777344 119.382812 150.617188 118.960938 149.449219 C 118.542969 148.277344 118.152344 147.097656 117.792969 145.910156 C 117.429688 144.71875 117.101562 143.519531 116.796875 142.316406 C 116.496094 141.109375 116.222656 139.898438 115.980469 138.679688 C 115.738281 137.457031 115.523438 136.234375 115.34375 135.003906 C 115.160156 133.773438 115.007812 132.542969 114.886719 131.304688 C 114.765625 130.066406 114.671875 128.828125 114.613281 127.585938 C 114.550781 126.34375 114.519531 125.101562 114.519531 123.859375 C 114.519531 122.617188 114.550781 121.375 114.613281 120.132812 C 114.671875 118.890625 114.765625 117.652344 114.886719 116.414062 C 115.007812 115.179688 115.160156 113.945312 115.34375 112.714844 C 115.523438 111.484375 115.738281 110.261719 115.980469 109.042969 C 116.222656 107.824219 116.496094 106.609375 116.796875 105.402344 C 117.101562 104.199219 117.429688 103 117.792969 101.8125 C 118.152344 100.621094 118.542969 99.441406 118.960938 98.269531 C 119.382812 97.101562 119.828125 95.941406 120.304688 94.792969 C 120.78125 93.644531 121.285156 92.507812 121.816406 91.382812 C 122.347656 90.261719 122.90625 89.152344 123.492188 88.054688 C 124.078125 86.957031 124.691406 85.878906 125.332031 84.8125 C 125.96875 83.746094 126.636719 82.695312 127.324219 81.660156 C 128.015625 80.628906 128.734375 79.613281 129.472656 78.613281 C 130.214844 77.613281 130.980469 76.636719 131.769531 75.675781 C 132.558594 74.714844 133.367188 73.773438 134.203125 72.851562 C 135.039062 71.929688 135.894531 71.03125 136.777344 70.152344 C 137.65625 69.273438 138.554688 68.414062 139.476562 67.582031 C 140.398438 66.746094 141.339844 65.933594 142.300781 65.144531 C 143.261719 64.355469 144.242188 63.59375 145.242188 62.851562 C 146.238281 62.109375 147.257812 61.394531 148.289062 60.707031 C 149.324219 60.015625 150.375 59.351562 151.441406 58.710938 C 152.507812 58.070312 153.589844 57.457031 154.6875 56.871094 C 155.78125 56.285156 156.894531 55.726562 158.015625 55.195312 C 159.140625 54.664062 160.277344 54.160156 161.425781 53.6875 C 162.574219 53.210938 163.734375 52.761719 164.90625 52.34375 C 166.078125 51.925781 167.257812 51.535156 168.449219 51.175781 C 169.636719 50.8125 170.835938 50.484375 172.042969 50.179688 C 173.25 49.878906 174.460938 49.605469 175.679688 49.363281 C 176.902344 49.121094 178.125 48.910156 179.355469 48.726562 C 180.585938 48.542969 181.820312 48.390625 183.058594 48.269531 C 184.292969 48.148438 185.535156 48.058594 186.777344 47.996094 C 188.019531 47.933594 189.261719 47.902344 190.503906 47.902344 C 191.75 47.902344 192.992188 47.933594 194.234375 47.996094 C 195.476562 48.058594 196.714844 48.148438 197.953125 48.269531 C 199.191406 48.390625 200.425781 48.542969 201.652344 48.726562 C 202.882812 48.910156 204.109375 49.121094 205.328125 49.363281 C 206.546875 49.605469 207.761719 49.878906 208.96875 50.179688 C 210.175781 50.484375 211.371094 50.8125 212.5625 51.175781 C 213.753906 51.535156 214.933594 51.925781 216.101562 52.34375 C 217.273438 52.761719 218.433594 53.210938 219.582031 53.6875 C 220.730469 54.160156 221.867188 54.664062 222.992188 55.195312 C 224.117188 55.726562 225.226562 56.285156 226.324219 56.871094 C 227.421875 57.457031 228.503906 58.070312 229.570312 58.710938 C 230.636719 59.351562 231.6875 60.015625 232.71875 60.707031 C 233.753906 61.394531 234.769531 62.109375 235.769531 62.851562 C 236.769531 63.59375 237.746094 64.355469 238.710938 65.144531 C 239.671875 65.933594 240.613281 66.746094 241.53125 67.582031 C 242.453125 68.414062 243.355469 69.273438 244.234375 70.152344 C 245.113281 71.03125 245.972656 71.929688 246.804688 72.851562 C 247.640625 73.773438 248.453125 74.714844 249.242188 75.675781 C 250.03125 76.636719 250.796875 77.613281 251.535156 78.613281 C 252.277344 79.613281 252.992188 80.628906 253.683594 81.660156 C 254.375 82.695312 255.039062 83.746094 255.679688 84.8125 C 256.320312 85.878906 256.929688 86.957031 257.515625 88.054688 C 258.105469 89.152344 258.664062 90.261719 259.195312 91.382812 C 259.726562 92.507812 260.230469 93.644531 260.707031 94.792969 C 261.179688 95.941406 261.628906 97.101562 262.046875 98.269531 C 262.464844 99.441406 262.855469 100.621094 263.21875 101.8125 C 263.578125 103 263.910156 104.199219 264.210938 105.402344 C 264.515625 106.609375 264.785156 107.824219 265.03125 109.042969 C 265.273438 110.261719 265.484375 111.484375 265.667969 112.714844 C 265.851562 113.945312 266 115.179688 266.125 116.414062 C 266.246094 117.652344 266.335938 118.890625 266.398438 120.132812 C 266.460938 121.375 266.488281 122.617188 266.488281 123.859375 C 266.511719 128.875 266.027344 133.84375 265.042969 138.761719 C 264.058594 143.679688 262.59375 148.453125 260.644531 153.074219 C 256.160156 153.078125 251.734375 153.601562 247.371094 154.636719 C 243.003906 155.671875 238.820312 157.195312 234.808594 159.207031 L 217.273438 148.105469 C 216.765625 147.785156 216.21875 147.550781 215.636719 147.398438 C 215.050781 147.246094 214.460938 147.1875 213.859375 147.21875 C 213.257812 147.25 212.675781 147.371094 212.109375 147.582031 C 211.546875 147.792969 211.027344 148.085938 210.554688 148.457031 C 210.074219 148.832031 209.667969 149.269531 209.324219 149.769531 C 208.984375 150.269531 208.726562 150.8125 208.554688 151.394531 C 208.382812 151.972656 208.300781 152.566406 208.3125 153.171875 C 208.324219 153.78125 208.429688 154.371094 208.625 154.941406 L 215.347656 175.042969 C 212.53125 178.472656 210.144531 182.171875 208.179688 186.148438 C 206.214844 190.125 204.726562 194.269531 203.714844 198.589844 Z M 266.488281 334.199219 C 266.488281 343.722656 236.914062 357.570312 190.503906 357.570312 C 144.097656 357.570312 114.519531 343.722656 114.519531 334.199219 C 114.519531 326.601562 134.742188 314.625 172.96875 311.585938 L 185.886719 331.511719 C 186.019531 331.714844 186.164062 331.910156 186.320312 332.097656 C 186.476562 332.28125 186.644531 332.457031 186.820312 332.625 C 187 332.789062 187.1875 332.941406 187.386719 333.085938 C 187.582031 333.226562 187.789062 333.355469 188.003906 333.472656 C 188.214844 333.589844 188.4375 333.691406 188.660156 333.78125 C 188.886719 333.867188 189.121094 333.941406 189.355469 334.003906 C 189.589844 334.0625 189.828125 334.109375 190.070312 334.136719 C 190.3125 334.167969 190.554688 334.183594 190.796875 334.183594 C 191.039062 334.183594 191.28125 334.167969 191.523438 334.136719 C 191.765625 334.109375 192.003906 334.0625 192.238281 334.003906 C 192.476562 333.941406 192.707031 333.867188 192.933594 333.78125 C 193.160156 333.691406 193.378906 333.589844 193.59375 333.472656 C 193.804688 333.355469 194.011719 333.226562 194.210938 333.085938 C 194.40625 332.941406 194.59375 332.789062 194.773438 332.625 C 194.949219 332.457031 195.117188 332.28125 195.273438 332.097656 C 195.429688 331.910156 195.574219 331.714844 195.707031 331.511719 L 208.625 311.585938 C 246.265625 314.625 266.488281 326.542969 266.488281 334.199219 Z M 190.503906 317.605469 L 102.246094 181.058594 C 100.992188 179.132812 99.804688 177.164062 98.679688 175.160156 C 97.558594 173.152344 96.5 171.113281 95.511719 169.035156 C 94.519531 166.960938 93.601562 164.855469 92.75 162.71875 C 91.898438 160.582031 91.121094 158.421875 90.410156 156.234375 C 89.703125 154.046875 89.066406 151.835938 88.503906 149.609375 C 87.941406 147.378906 87.453125 145.132812 87.039062 142.871094 C 86.621094 140.609375 86.28125 138.339844 86.015625 136.054688 C 85.75 133.769531 85.558594 131.480469 85.445312 129.183594 C 85.332031 126.886719 85.292969 124.589844 85.328125 122.289062 C 85.363281 119.992188 85.476562 117.695312 85.664062 115.40625 C 85.851562 113.113281 86.113281 110.832031 86.453125 108.554688 C 86.789062 106.28125 87.203125 104.019531 87.6875 101.773438 C 88.175781 99.527344 88.734375 97.296875 89.367188 95.089844 C 90 92.878906 90.707031 90.691406 91.484375 88.527344 C 92.261719 86.363281 93.109375 84.226562 94.027344 82.117188 C 94.945312 80.011719 95.929688 77.933594 96.984375 75.890625 C 97.988281 73.859375 99.054688 71.863281 100.191406 69.90625 C 101.324219 67.945312 102.523438 66.023438 103.785156 64.140625 C 105.042969 62.261719 106.367188 60.421875 107.75 58.628906 C 109.132812 56.835938 110.570312 55.089844 112.070312 53.390625 C 113.566406 51.691406 115.117188 50.042969 116.726562 48.445312 C 118.332031 46.851562 119.988281 45.308594 121.699219 43.820312 C 123.40625 42.335938 125.164062 40.90625 126.964844 39.535156 C 128.769531 38.164062 130.613281 36.851562 132.503906 35.601562 C 134.394531 34.355469 136.320312 33.167969 138.289062 32.046875 C 140.257812 30.921875 142.261719 29.867188 144.296875 28.878906 C 146.335938 27.886719 148.402344 26.964844 150.5 26.113281 C 152.601562 25.257812 154.722656 24.476562 156.875 23.761719 C 159.023438 23.050781 161.195312 22.410156 163.386719 21.839844 C 165.582031 21.269531 167.789062 20.773438 170.015625 20.347656 C 172.242188 19.921875 174.476562 19.574219 176.726562 19.296875 C 178.972656 19.019531 181.230469 18.816406 183.492188 18.691406 C 188.109375 18.691406 192.902344 18.691406 197.519531 18.691406 C 201.734375 18.902344 205.917969 19.371094 210.074219 20.101562 C 214.230469 20.832031 218.324219 21.8125 222.359375 23.050781 C 226.394531 24.289062 230.335938 25.769531 234.1875 27.492188 C 238.039062 29.21875 241.769531 31.175781 245.375 33.363281 C 248.984375 35.550781 252.445312 37.949219 255.753906 40.566406 C 259.066406 43.179688 262.203125 45.992188 265.164062 48.996094 C 268.125 52 270.890625 55.171875 273.460938 58.519531 C 276.027344 61.867188 278.382812 65.359375 280.515625 68.996094 C 282.554688 72.386719 284.398438 75.882812 286.046875 79.480469 C 287.695312 83.078125 289.132812 86.757812 290.367188 90.515625 C 291.601562 94.277344 292.625 98.09375 293.429688 101.964844 C 294.234375 105.839844 294.824219 109.746094 295.191406 113.6875 C 295.558594 117.625 295.707031 121.574219 295.632812 125.527344 C 295.558594 129.484375 295.261719 133.425781 294.746094 137.347656 C 294.226562 141.269531 293.492188 145.152344 292.542969 148.992188 C 291.589844 152.832031 290.425781 156.609375 289.050781 160.320312 C 283.890625 157.421875 278.414062 155.359375 272.625 154.125 C 276.300781 144.371094 278.152344 134.28125 278.179688 123.859375 C 278.191406 122.367188 278.164062 120.878906 278.101562 119.386719 C 278.039062 117.898438 277.9375 116.410156 277.796875 114.925781 C 277.660156 113.441406 277.484375 111.960938 277.269531 110.484375 C 277.054688 109.007812 276.804688 107.539062 276.515625 106.074219 C 276.226562 104.613281 275.902344 103.15625 275.539062 101.710938 C 275.175781 100.261719 274.777344 98.828125 274.34375 97.398438 C 273.910156 95.972656 273.4375 94.558594 272.929688 93.15625 C 272.425781 91.753906 271.882812 90.363281 271.304688 88.988281 C 270.726562 87.613281 270.117188 86.253906 269.472656 84.910156 C 268.824219 83.566406 268.144531 82.238281 267.433594 80.925781 C 266.71875 79.617188 265.972656 78.328125 265.195312 77.054688 C 264.417969 75.78125 263.605469 74.53125 262.765625 73.300781 C 261.921875 72.066406 261.050781 70.859375 260.144531 69.671875 C 259.242188 68.484375 258.308594 67.320312 257.347656 66.179688 C 256.386719 65.042969 255.394531 63.925781 254.375 62.835938 C 253.359375 61.746094 252.3125 60.683594 251.238281 59.648438 C 250.167969 58.609375 249.070312 57.601562 247.945312 56.621094 C 246.820312 55.640625 245.675781 54.6875 244.503906 53.765625 C 243.332031 52.839844 242.136719 51.949219 240.917969 51.085938 C 239.703125 50.222656 238.464844 49.390625 237.203125 48.59375 C 235.945312 47.792969 234.667969 47.023438 233.367188 46.289062 C 232.070312 45.554688 230.753906 44.851562 229.421875 44.183594 C 228.085938 43.515625 226.738281 42.882812 225.371094 42.28125 C 224.003906 41.679688 222.625 41.117188 221.230469 40.585938 C 219.835938 40.054688 218.429688 39.5625 217.007812 39.101562 C 215.589844 38.640625 214.160156 38.21875 212.71875 37.832031 C 211.277344 37.445312 209.828125 37.097656 208.371094 36.78125 C 206.910156 36.46875 205.445312 36.195312 203.972656 35.953125 C 202.5 35.714844 201.023438 35.515625 199.539062 35.351562 C 198.054688 35.183594 196.570312 35.058594 195.082031 34.96875 C 193.589844 34.878906 192.101562 34.828125 190.609375 34.816406 C 189.117188 34.800781 187.625 34.828125 186.132812 34.886719 C 184.644531 34.949219 183.15625 35.050781 181.671875 35.1875 C 180.183594 35.324219 178.703125 35.5 177.226562 35.710938 C 175.75 35.925781 174.28125 36.171875 172.816406 36.460938 C 171.351562 36.746094 169.894531 37.070312 168.449219 37.429688 C 167 37.792969 165.5625 38.1875 164.132812 38.621094 C 162.707031 39.054688 161.289062 39.523438 159.886719 40.027344 C 158.484375 40.535156 157.09375 41.074219 155.714844 41.648438 C 154.339844 42.226562 152.980469 42.835938 151.632812 43.480469 C 150.289062 44.121094 148.960938 44.800781 147.648438 45.511719 C 146.335938 46.222656 145.042969 46.96875 143.769531 47.746094 C 142.496094 48.519531 141.242188 49.328125 140.011719 50.171875 C 138.777344 51.011719 137.566406 51.882812 136.378906 52.785156 C 135.191406 53.683594 134.027344 54.617188 132.886719 55.578125 C 131.742188 56.539062 130.628906 57.527344 129.535156 58.542969 C 128.445312 59.558594 127.378906 60.605469 126.34375 61.675781 C 125.304688 62.746094 124.292969 63.84375 123.3125 64.964844 C 122.328125 66.085938 121.375 67.234375 120.449219 68.402344 C 119.523438 69.574219 118.628906 70.765625 117.765625 71.984375 C 116.902344 73.199219 116.070312 74.4375 115.265625 75.695312 C 114.464844 76.953125 113.695312 78.230469 112.960938 79.527344 C 112.222656 80.824219 111.519531 82.136719 110.847656 83.46875 C 110.179688 84.800781 109.542969 86.152344 108.941406 87.515625 C 108.339844 88.878906 107.773438 90.257812 107.242188 91.652344 C 106.707031 93.046875 106.210938 94.453125 105.75 95.871094 C 105.289062 97.289062 104.867188 98.71875 104.476562 100.15625 C 104.089844 101.597656 103.738281 103.046875 103.421875 104.503906 C 103.105469 105.960938 102.828125 107.425781 102.589844 108.898438 C 102.347656 110.371094 102.144531 111.847656 101.980469 113.328125 C 101.8125 114.8125 101.683594 116.296875 101.59375 117.785156 C 101.503906 119.273438 101.449219 120.765625 101.433594 122.257812 C 101.417969 123.746094 101.441406 125.238281 101.503906 126.726562 C 101.5625 128.21875 101.660156 129.707031 101.796875 131.191406 C 101.933594 132.675781 102.105469 134.15625 102.316406 135.632812 C 102.527344 137.109375 102.777344 138.582031 103.0625 140.042969 C 103.347656 141.507812 103.667969 142.964844 104.027344 144.410156 C 104.386719 145.859375 104.78125 147.296875 105.214844 148.722656 C 105.644531 150.152344 106.113281 151.566406 106.617188 152.972656 C 107.121094 154.375 107.660156 155.765625 108.234375 157.140625 C 108.808594 158.519531 109.414062 159.878906 110.058594 161.226562 C 110.703125 162.570312 111.378906 163.902344 112.089844 165.210938 C 112.796875 166.523438 113.542969 167.816406 114.316406 169.089844 C 115.09375 170.363281 115.902344 171.617188 116.738281 172.851562 C 117.578125 174.082031 118.449219 175.292969 119.351562 176.484375 C 120.25 177.671875 121.179688 178.839844 122.140625 179.980469 C 123.101562 181.121094 124.089844 182.238281 125.105469 183.332031 C 126.121094 184.421875 127.164062 185.488281 128.234375 186.527344 C 129.304688 187.566406 130.398438 188.578125 131.523438 189.5625 C 132.644531 190.546875 133.789062 191.5 134.960938 192.425781 C 136.128906 193.351562 137.320312 194.246094 138.535156 195.113281 C 139.75 195.976562 140.988281 196.808594 142.246094 197.613281 C 143.503906 198.414062 144.78125 199.1875 146.078125 199.925781 C 147.375 200.660156 148.6875 201.367188 150.019531 202.039062 C 151.351562 202.710938 152.699219 203.347656 154.066406 203.949219 C 155.429688 204.554688 156.808594 205.121094 158.203125 205.65625 C 159.59375 206.1875 161 206.6875 162.417969 207.148438 C 163.839844 207.609375 165.265625 208.035156 166.707031 208.425781 C 168.148438 208.816406 169.597656 209.167969 171.054688 209.484375 C 172.511719 209.800781 173.976562 210.082031 175.449219 210.324219 C 176.921875 210.566406 178.398438 210.769531 179.882812 210.9375 C 181.363281 211.105469 182.851562 211.234375 184.339844 211.328125 C 185.828125 211.421875 187.320312 211.472656 188.8125 211.492188 C 190.304688 211.507812 191.792969 211.488281 193.285156 211.429688 C 194.777344 211.371094 196.265625 211.273438 197.75 211.140625 C 199.234375 211.003906 200.71875 210.832031 202.195312 210.625 C 202.195312 210.625 202.195312 211.207031 202.195312 211.5 C 202.195312 213.875 202.34375 216.242188 202.632812 218.597656 C 202.925781 220.957031 203.355469 223.289062 203.933594 225.59375 C 204.507812 227.898438 205.21875 230.15625 206.070312 232.375 C 206.921875 234.59375 207.902344 236.75 209.019531 238.847656 C 210.132812 240.945312 211.371094 242.96875 212.730469 244.914062 C 214.089844 246.863281 215.566406 248.71875 217.152344 250.488281 C 218.738281 252.253906 220.429688 253.917969 222.21875 255.480469 C 224.007812 257.042969 225.886719 258.488281 227.855469 259.820312 Z M 190.503906 317.605469 " fill-opacity="1" fill-rule="nonzero"/></g><path fill="#000000" d="M 137.898438 94.644531 L 248.953125 94.644531 L 248.953125 106.332031 L 137.898438 106.332031 Z M 137.898438 94.644531 " fill-opacity="1" fill-rule="nonzero"/><path fill="#000000" d="M 137.898438 118.015625 L 248.953125 118.015625 L 248.953125 129.703125 L 137.898438 129.703125 Z M 137.898438 118.015625 " fill-opacity="1" fill-rule="nonzero"/><path fill="#000000" d="M 137.898438 141.386719 L 172.96875 141.386719 L 172.96875 153.074219 L 137.898438 153.074219 Z M 137.898438 141.386719 " fill-opacity="1" fill-rule="nonzero"/><path fill="#000000" d="M 184.660156 141.386719 L 196.351562 141.386719 L 196.351562 153.074219 L 184.660156 153.074219 Z M 184.660156 141.386719 " fill-opacity="1" fill-rule="nonzero"/><path fill="#000000" d="M 274.03125 189.824219 L 260.644531 203.261719 L 247.257812 189.824219 L 238.960938 198.121094 L 252.402344 211.5 L 238.960938 224.882812 L 247.257812 233.175781 L 260.644531 219.738281 L 274.03125 233.175781 L 282.328125 224.882812 L 268.886719 211.5 L 282.328125 198.121094 Z M 274.03125 189.824219 " fill-opacity="1" fill-rule="nonzero"/></svg>