<svg width="202" height="79" viewBox="0 0 202 79" fill="none" xmlns="http://www.w3.org/2000/svg">
<path d="M67.4586 33.167C67.4674 40.0098 65.1992 46.6771 60.9858 52.1961C60.6319 52.6529 60.4407 53.2048 60.4385 53.7715V61.2191C60.4868 63.395 58.7901 65.2431 56.535 65.4736C55.3679 65.5582 54.2184 65.1691 53.3612 64.4057C52.504 63.6424 52.0161 62.5703 52.0161 61.4474V60.1005C52.0161 57.8696 50.1281 56.0616 47.8027 56.0616C45.4773 56.0616 43.5915 57.8696 43.5915 60.1005V74.6869C43.6398 76.8606 41.9452 78.7109 39.688 78.9414C38.5209 79.0239 37.3714 78.6369 36.5142 77.8735C35.6548 77.1102 35.169 76.0381 35.1668 74.9152V68.1274C35.1603 66.6853 33.9734 65.5053 32.4722 65.4482C14.0603 64.7589 -0.351492 50.0012 0.125457 32.3339C0.604602 14.6665 15.7966 0.648949 34.2195 0.877324C52.6447 1.1057 67.4542 15.4933 67.4586 33.167Z" fill="#2980BA"/>
<path d="M59.034 19.7014C59.0406 21.5114 58.8802 23.3173 58.5571 25.0999V25.1147C57.99 28.3838 56.8867 31.5473 55.2866 34.4886C50.8688 42.7165 42.987 48.7367 33.6371 51.0247C22.1288 53.8329 9.93036 50.6187 1.52993 42.5685C-2.9758 28.386 3.16078 13.0827 16.412 5.45119C29.6633 -2.18035 46.629 -0.17995 57.5592 10.2999C57.8537 11.1754 58.0955 12.0677 58.2911 12.9664C58.7879 15.1804 59.0384 17.4366 59.034 19.7014Z" fill="#3B97D3"/>
<path d="M60.4385 74.9152C60.4385 77.1461 58.5527 78.9541 56.2273 78.9541C53.8997 78.9541 52.0161 77.1461 52.0161 74.9152C52.0161 72.6844 53.8997 70.8743 56.2273 70.8743C58.5527 70.8743 60.4385 72.6844 60.4385 74.9152Z" fill="#3B97D3"/>
<path d="M67.4586 33.167C67.4652 37.3243 66.6256 41.4414 64.986 45.2878H50.6116C49.4049 45.2899 48.2334 44.9178 47.2686 44.2242C50.583 41.5133 53.3062 38.2061 55.2866 34.4886C58.201 34.2666 60.4451 31.9321 60.4385 29.1282C60.4363 27.6987 59.845 26.3285 58.7966 25.3156C58.7109 25.25 58.6406 25.1675 58.5571 25.1147V25.0999C58.8801 23.3173 59.0406 21.5114 59.034 19.7013C59.0384 17.4366 58.7878 15.1804 58.2911 12.9664H60.0582C64.8585 18.6927 67.4696 25.821 67.4586 33.167Z" fill="#24AE5F"/>
<path d="M54.8228 34.514C54.9789 34.5183 55.1327 34.5098 55.2866 34.4886C53.3063 38.2061 50.583 41.5133 47.2686 44.2242C45.8355 43.2134 44.9915 41.6063 44.9959 39.902C44.9937 38.4725 45.585 37.1002 46.6378 36.0894C47.6906 35.0786 49.1214 34.5119 50.6116 34.514H54.8228Z" fill="#4FBA6F"/>
<path d="M59.034 19.7013C59.0406 21.5114 58.8802 23.3173 58.5571 25.0999C57.5284 24.2223 56.1987 23.7381 54.8228 23.7402H44.9959C41.8947 23.7402 39.3802 21.3296 39.3802 18.3544C39.3802 15.3791 41.8947 12.9664 44.9959 12.9664H58.2911C58.7879 15.1804 59.0384 17.4366 59.034 19.7013Z" fill="#4FBA6F"/>
<path d="M35.1668 54.7146C35.169 56.1441 34.5778 57.5144 33.525 58.5251C32.4722 59.5359 31.0413 60.1026 29.5511 60.1005H15.1614C8.62918 55.9559 3.80915 49.7559 1.52991 42.5685C9.93035 50.6187 22.1288 53.8329 33.6371 51.0247C34.6173 52.0228 35.1646 53.3423 35.1668 54.7146Z" fill="#24AE5F"/>
<path d="M40.7825 33.167C40.7847 34.5965 40.1934 35.9689 39.1406 36.9796C38.0878 37.9883 36.657 38.555 35.1668 38.555H15.513C13.5063 38.555 11.6535 39.5806 10.649 41.2469C9.64679 42.9153 9.64679 44.9685 10.649 46.6348C11.6535 48.3011 13.5063 49.3267 15.513 49.3267H29.5511C31.1007 49.3224 32.5799 49.9378 33.6371 51.0247C22.1288 53.8329 9.93032 50.6187 1.52988 42.5685C-2.8176 28.8956 2.72994 14.1125 15.1614 6.23358H25.3399C28.4412 6.23358 30.9556 8.64632 30.9556 11.6194C30.9556 14.5946 28.4412 17.0074 25.3399 17.0074H14.1086C11.0073 17.0074 8.49288 19.418 8.49288 22.3932C8.49288 25.3684 11.0073 27.7812 14.1086 27.7812H35.1668C38.2681 27.7812 40.7825 30.1918 40.7825 33.167Z" fill="#4FBA6F"/>
<path d="M70.2689 63.0896H76.5769L78.3902 61.3472V55.8683L76.5769 54.1259H70.2689L68.4578 55.8683V61.3472L70.2689 63.0896ZM70.2689 61.3472V55.8683H76.5769V61.3472H70.2689Z" fill="black"/>
<path d="M83.3871 63.0896H85.1982V55.8683H91.5062V63.0896H93.3195V55.8683L91.5062 54.1259H85.1982L83.3871 55.8683V63.0896Z" fill="black"/>
<path d="M98.3164 59.6048H101.939V57.8602H98.3164V59.6048Z" fill="black"/>
<path d="M108.749 63.0896H115.866V61.3472H108.749V55.8683H115.866V54.1259H108.749L106.938 55.8683V61.3472L108.749 63.0896Z" fill="black"/>
<path d="M122.675 63.0896H128.5V61.3472H122.675V54.1259H120.864V61.3472L122.675 63.0896Z" fill="black"/>
<path d="M133.497 63.0896H140.613V61.3472H137.96V55.8683H140.613V54.1259H133.497V55.8683H136.149V61.3472H133.497V63.0896Z" fill="black"/>
<path d="M145.611 63.0896H147.423V55.8683H150.383V60.6938H152.194V55.8683H155.139V63.0896H156.951V55.8683L155.139 54.1259H147.423L145.611 55.8683V63.0896Z" fill="black"/>
<path d="M161.948 63.0896H163.759V59.48H170.067V63.0896H171.88V55.8683L170.067 54.1259H163.759L161.948 55.8683V63.0896ZM163.759 57.7355V55.8683H170.067V57.7355H163.759Z" fill="black"/>
<path d="M180.776 63.0896H182.587V55.8683H186.484V54.1259H176.877V55.8683H180.776V63.0896Z" fill="black"/>
<path d="M193.294 63.0896H201.382V61.3472H193.294V59.48H199.279V57.7355H193.294V55.8683H201.382V54.1259H193.294L191.483 55.8683V61.3472L193.294 63.0896Z" fill="black"/>
</svg>
