<svg width="202" height="79" viewBox="0 0 202 79" fill="none" xmlns="http://www.w3.org/2000/svg">
<path d="M68.156 33.167C68.1648 40.0098 65.9033 46.6771 61.7024 52.1961C61.3496 52.6529 61.1589 53.2048 61.1567 53.7715V61.2191C61.2049 63.395 59.5132 65.2431 57.2648 65.4736C56.1012 65.5582 54.9551 65.1691 54.1004 64.4057C53.2458 63.6424 52.7593 62.5703 52.7593 61.4474V60.1005C52.7593 57.8696 50.8769 56.0616 48.5584 56.0616C46.2399 56.0616 44.3597 57.8696 44.3597 60.1005V74.6869C44.4079 76.8606 42.7184 78.7109 40.4678 78.9414C39.3042 79.0239 38.1581 78.6369 37.3035 77.8735C36.4466 77.1102 35.9623 76.0381 35.9602 74.9152V68.1274C35.9536 66.6853 34.7702 65.5053 33.2735 65.4482C14.9163 64.7589 0.547352 50.0012 1.02288 32.3339C1.50061 14.6665 16.6475 0.648949 35.0157 0.877324C53.3861 1.1057 68.1516 15.4933 68.156 33.167Z" fill="#2980BA"/>
<path d="M59.7564 19.7014C59.763 21.5114 59.603 23.3173 59.2809 25.0999V25.1147C58.7155 28.3838 57.6154 31.5473 56.0201 34.4886C51.6154 42.7165 43.7571 48.7367 34.4349 51.0247C22.9608 53.8329 10.7986 50.6187 2.42315 42.5685C-2.06919 28.386 4.04916 13.0827 17.261 5.45119C30.4729 -2.18035 47.3882 -0.17995 58.286 10.2999C58.5796 11.1754 58.8207 12.0677 59.0157 12.9664C59.511 15.1804 59.7608 17.4366 59.7564 19.7014Z" fill="#3B97D3"/>
<path d="M61.1567 74.9152C61.1567 77.1461 59.2765 78.9541 56.958 78.9541C54.6374 78.9541 52.7593 77.1461 52.7593 74.9152C52.7593 72.6844 54.6374 70.8743 56.958 70.8743C59.2765 70.8743 61.1567 72.6844 61.1567 74.9152Z" fill="#3B97D3"/>
<path d="M68.156 33.167C68.1626 37.3243 67.3255 41.4414 65.6907 45.2878H51.359C50.156 45.2899 48.988 44.9178 48.0259 44.2242C51.3306 41.5133 54.0457 38.2061 56.0201 34.4886C58.9259 34.2666 61.1633 31.9321 61.1567 29.1282C61.1545 27.6987 60.5651 26.3285 59.5198 25.3156C59.4343 25.25 59.3642 25.1675 59.2809 25.1147V25.0999C59.603 23.3173 59.763 21.5114 59.7564 19.7013C59.7608 17.4366 59.511 15.1804 59.0157 12.9664H60.7776C65.5636 18.6927 68.167 25.821 68.156 33.167Z" fill="#24AE5F"/>
<path d="M55.5577 34.514C55.7133 34.5183 55.8667 34.5098 56.0201 34.4886C54.0457 38.2061 51.3305 41.5133 48.0259 44.2242C46.5971 43.2134 45.7556 41.6063 45.76 39.902C45.7578 38.4725 46.3473 37.1002 47.397 36.0894C48.4467 35.0786 49.8733 34.5119 51.359 34.514H55.5577Z" fill="#4FBA6F"/>
<path d="M59.7564 19.7013C59.763 21.5114 59.603 23.3173 59.2809 25.0999C58.2553 24.2223 56.9295 23.7381 55.5577 23.7402H45.76C42.668 23.7402 40.161 21.3296 40.161 18.3544C40.161 15.3791 42.668 12.9664 45.76 12.9664H59.0157C59.511 15.1804 59.7608 17.4366 59.7564 19.7013Z" fill="#4FBA6F"/>
<path d="M35.9601 54.7146C35.9623 56.1441 35.3728 57.5144 34.3232 58.5251C33.2735 59.5359 31.8469 60.1026 30.3611 60.1005H16.0141C9.50133 55.9559 4.69562 49.7559 2.42316 42.5685C10.7986 50.6187 22.9608 53.8329 34.4349 51.0247C35.4123 52.0228 35.9579 53.3423 35.9601 54.7146Z" fill="#24AE5F"/>
<path d="M41.5591 33.167C41.5613 34.5965 40.9718 35.9689 39.9222 36.9796C38.8725 37.9883 37.4459 38.555 35.9601 38.555H16.3648C14.364 38.555 12.5167 39.5806 11.5152 41.2469C10.516 42.9153 10.516 44.9685 11.5152 46.6348C12.5167 48.3011 14.364 49.3267 16.3648 49.3267H30.3611C31.9061 49.3224 33.3809 49.9378 34.4349 51.0247C22.9608 53.8329 10.7986 50.6187 2.42317 42.5685C-1.91139 28.8956 3.61967 14.1125 16.0141 6.23358H26.1625C29.2545 6.23358 31.7614 8.64632 31.7614 11.6194C31.7614 14.5946 29.2545 17.0074 26.1625 17.0074H14.9645C11.8724 17.0074 9.36548 19.418 9.36548 22.3932C9.36548 25.3684 11.8724 27.7812 14.9645 27.7812H35.9601C39.0522 27.7812 41.5591 30.1918 41.5591 33.167Z" fill="#4FBA6F"/>
<path d="M70.9579 63.0896H77.2472L79.0551 61.3472V55.8683L77.2472 54.1259H70.9579L69.1522 55.8683V61.3472L70.9579 63.0896ZM70.9579 61.3472V55.8683H77.2472V61.3472H70.9579Z" fill="white"/>
<path d="M84.0372 63.0896H85.8429V55.8683H92.1322V63.0896H93.94V55.8683L92.1322 54.1259H85.8429L84.0372 55.8683V63.0896Z" fill="white"/>
<path d="M98.9221 59.6048H102.533V57.8602H98.9221V59.6048Z" fill="white"/>
<path d="M109.323 63.0896H116.419V61.3472H109.323V55.8683H116.419V54.1259H109.323L107.518 55.8683V61.3472L109.323 63.0896Z" fill="white"/>
<path d="M123.208 63.0896H129.016V61.3472H123.208V54.1259H121.403V61.3472L123.208 63.0896Z" fill="white"/>
<path d="M133.998 63.0896H141.093V61.3472H138.448V55.8683H141.093V54.1259H133.998V55.8683H136.643V61.3472H133.998V63.0896Z" fill="white"/>
<path d="M146.077 63.0896H147.882V55.8683H150.834V60.6938H152.64V55.8683H155.576V63.0896H157.382V55.8683L155.576 54.1259H147.882L146.077 55.8683V63.0896Z" fill="white"/>
<path d="M162.365 63.0896H164.17V59.48H170.459V63.0896H172.267V55.8683L170.459 54.1259H164.17L162.365 55.8683V63.0896ZM164.17 57.7355V55.8683H170.459V57.7355H164.17Z" fill="white"/>
<path d="M181.137 63.0896H182.943V55.8683H186.828V54.1259H177.249V55.8683H181.137V63.0896Z" fill="white"/>
<path d="M193.618 63.0896H201.682V61.3472H193.618V59.48H199.585V57.7355H193.618V55.8683H201.682V54.1259H193.618L191.812 55.8683V61.3472L193.618 63.0896Z" fill="white"/>
</svg>
