<svg width="47" height="47" viewBox="0 0 47 47" fill="none" xmlns="http://www.w3.org/2000/svg">
<path d="M0 8.8125C0 7.19045 1.50337 5.875 3.35714 5.875H43.6429C45.4998 5.875 47 7.19045 47 8.8125C47 10.4373 45.4998 11.75 43.6429 11.75H3.35714C1.50337 11.75 0 10.4373 0 8.8125ZM0 23.5C0 21.8752 1.50337 20.5625 3.35714 20.5625H43.6429C45.4998 20.5625 47 21.8752 47 23.5C47 25.1248 45.4998 26.4375 43.6429 26.4375H3.35714C1.50337 26.4375 0 25.1248 0 23.5ZM43.6429 41.125H3.35714C1.50337 41.125 0 39.8123 0 38.1875C0 36.5627 1.50337 35.25 3.35714 35.25H43.6429C45.4998 35.25 47 36.5627 47 38.1875C47 39.8123 45.4998 41.125 43.6429 41.125Z" fill="black"/>
</svg>
