<svg width="50" height="71" viewBox="0 0 50 71" fill="none" xmlns="http://www.w3.org/2000/svg">
<path d="M14.1999 2.72996C5.07763 6.81984 -0.0784219 14.3303 0.00090196 23.6999C0.00090196 28.459 0.397521 30.2437 2.93589 35.7464C8.32991 47.7186 22.7669 70.5475 24.9086 70.5475C27.0503 70.5475 41.4873 47.7186 46.8813 35.7464C51.958 24.5922 50.8475 15.7432 43.4704 8.08398C36.3312 0.647848 23.9567 -1.58299 14.1999 2.72996ZM31.8098 14.4791C36.6485 17.974 37.2038 25.6332 32.9203 29.7231C24.512 37.5311 11.1062 29.8718 14.5172 19.1638C15.4691 16.2637 19.0386 13.0662 22.1323 12.3226C24.9086 11.6533 29.1921 12.62 31.8098 14.4791Z" fill="white"/>
<path d="M22.0529 15.4458C19.4352 16.4869 16.9762 19.9075 16.9762 22.5101C16.9762 25.559 18.88 28.0872 22.2116 29.3514C24.512 30.2437 25.3052 30.2437 27.6056 29.3514C33.0789 27.1949 34.5068 21.7665 30.6992 17.751C28.3195 15.3714 24.7499 14.4048 22.0529 15.4458Z" fill="white"/>
</svg>
