<svg xmlns="http://www.w3.org/2000/svg" xmlns:xlink="http://www.w3.org/1999/xlink" width="500" zoomAndPan="magnify" viewBox="0 0 375 374.999991" height="500" preserveAspectRatio="xMidYMid meet" version="1.0"><path fill="#6dbbea" d="M 310.34375 219.828125 C 310.34375 291.25 252.457031 349.136719 181.035156 349.136719 C 109.609375 349.136719 51.722656 291.25 51.722656 219.828125 C 51.722656 148.402344 109.609375 90.515625 181.035156 90.515625 C 252.457031 90.515625 310.34375 148.402344 310.34375 219.828125 " fill-opacity="1" fill-rule="nonzero"/><path fill="#578fd3" d="M 232.757812 290.949219 C 161.335938 290.949219 103.449219 233.0625 103.449219 161.636719 C 103.449219 142.847656 107.539062 125.066406 114.738281 108.953125 C 77.03125 131.53125 51.722656 172.675781 51.722656 219.828125 C 51.722656 291.25 109.609375 349.136719 181.035156 349.136719 C 233.667969 349.136719 278.875 317.644531 299.054688 272.511719 C 279.660156 284.15625 257.03125 290.949219 232.757812 290.949219 " fill-opacity="1" fill-rule="nonzero"/><path fill="#b9de23" d="M 268.242188 124.5625 L 200.429688 226.292969 L 265.085938 245.691406 L 239.222656 265.085938 L 239.222656 297.414062 L 213.363281 323.277344 L 216.570312 344.085938 C 270.667969 328.628906 310.34375 278.902344 310.34375 219.828125 C 310.34375 182.070312 294.054688 148.203125 268.242188 124.5625 " fill-opacity="1" fill-rule="nonzero"/><path fill="#b9de23" d="M 51.722656 219.828125 C 51.722656 281.78125 95.316406 333.503906 153.480469 346.132812 L 142.242188 297.414062 L 193.964844 265.085938 L 148.707031 232.757812 L 174.570312 200.429688 L 142.242188 168.101562 L 133.148438 99.785156 C 85.464844 118.828125 51.722656 165.351562 51.722656 219.828125 " fill-opacity="1" fill-rule="nonzero"/><path fill="#95d221" d="M 299.105469 272.585938 C 283.648438 307.113281 253.441406 333.554688 216.519531 344.085938 L 213.363281 323.277344 L 239.222656 297.414062 L 239.222656 290.746094 C 261.019531 289.710938 281.453125 283.246094 299.105469 272.585938 " fill-opacity="1" fill-rule="nonzero"/><path fill="#95d221" d="M 142.242188 297.414062 L 153.480469 346.105469 C 95.289062 333.503906 51.722656 281.78125 51.722656 219.828125 C 51.722656 172.625 77.003906 131.507812 114.6875 108.953125 C 107.464844 125.042969 103.449219 142.898438 103.449219 161.636719 C 103.449219 212.199219 132.417969 255.917969 174.695312 277.183594 L 142.242188 297.414062 " fill-opacity="1" fill-rule="nonzero"/><path fill="#f3e305" d="M 310.34375 0 L 325.042969 22.730469 L 350.300781 12.980469 L 348.835938 40.003906 L 375 46.976562 L 357.925781 67.988281 L 375 89 L 348.835938 95.945312 L 350.300781 122.972656 L 325.042969 113.246094 L 310.34375 135.976562 L 295.644531 113.246094 L 270.390625 122.972656 L 271.855469 95.945312 L 245.691406 89 L 262.761719 67.988281 L 245.691406 46.976562 L 271.855469 40.003906 L 270.390625 12.980469 L 295.644531 22.730469 L 310.34375 0 " fill-opacity="1" fill-rule="nonzero"/><path fill="#f7b60b" d="M 300.796875 97.386719 L 284.382812 103.726562 L 285.339844 86.171875 L 268.320312 81.628906 L 279.429688 67.988281 L 268.320312 54.324219 L 285.339844 49.804688 L 284.382812 32.226562 L 300.796875 38.566406 L 310.34375 23.792969 L 319.890625 38.566406 L 336.308594 32.226562 L 335.347656 49.804688 L 352.371094 54.324219 L 341.257812 67.988281 L 352.371094 81.628906 L 335.347656 86.171875 L 336.308594 103.726562 L 319.890625 97.386719 L 310.34375 112.160156 L 300.796875 97.386719 " fill-opacity="1" fill-rule="nonzero"/><path fill="#f14c46" d="M 336.207031 71.121094 C 336.207031 85.414062 324.640625 96.984375 310.34375 96.984375 C 296.050781 96.984375 284.484375 85.414062 284.484375 71.121094 C 284.484375 56.824219 296.050781 45.257812 310.34375 45.257812 C 324.640625 45.257812 336.207031 56.824219 336.207031 71.121094 " fill-opacity="1" fill-rule="nonzero"/><path fill="#d2dbda" d="M 193.964844 77.585938 C 196.214844 77.585938 198.4375 77.8125 200.582031 78.191406 C 209.449219 62.40625 226.316406 51.722656 245.691406 51.722656 C 265.0625 51.722656 281.933594 62.40625 290.796875 78.191406 C 292.945312 77.8125 295.164062 77.585938 297.414062 77.585938 C 311.835938 77.585938 324.414062 85.492188 331.105469 97.183594 C 331.710938 97.132812 332.34375 96.984375 332.972656 96.984375 C 349.035156 96.984375 362.070312 110.015625 362.070312 126.078125 C 362.070312 142.140625 349.035156 155.171875 332.972656 155.171875 C 326.886719 155.171875 321.230469 153.277344 316.582031 150.097656 C 310.925781 153.304688 304.382812 155.171875 297.414062 155.171875 C 288.421875 155.171875 280.164062 152.089844 273.597656 146.964844 C 265.539062 152.140625 255.96875 155.171875 245.691406 155.171875 C 235.410156 155.171875 225.839844 152.140625 217.78125 146.964844 C 211.214844 152.089844 202.957031 155.171875 193.964844 155.171875 C 172.546875 155.171875 155.171875 137.796875 155.171875 116.378906 C 155.171875 94.960938 172.546875 77.585938 193.964844 77.585938 " fill-opacity="1" fill-rule="nonzero"/><path fill="#8f9697" d="M 352.371094 129.308594 C 346.285156 129.308594 340.625 127.417969 335.980469 124.234375 C 330.320312 127.441406 323.78125 129.308594 316.808594 129.308594 C 307.820312 129.308594 299.558594 126.230469 292.992188 121.101562 C 284.9375 126.28125 275.367188 129.308594 265.085938 129.308594 C 254.808594 129.308594 245.234375 126.28125 237.179688 121.101562 C 230.613281 126.230469 222.351562 129.308594 213.363281 129.308594 C 191.945312 129.308594 174.570312 111.933594 174.570312 90.515625 C 174.570312 87.6875 174.898438 84.9375 175.476562 82.285156 C 163.378906 88.851562 155.171875 101.65625 155.171875 116.378906 C 155.171875 137.796875 172.546875 155.171875 193.964844 155.171875 C 202.957031 155.171875 211.214844 152.089844 217.78125 146.964844 C 225.839844 152.140625 235.410156 155.171875 245.691406 155.171875 C 255.96875 155.171875 265.539062 152.140625 273.597656 146.964844 C 280.164062 152.089844 288.421875 155.171875 297.414062 155.171875 C 304.382812 155.171875 310.925781 153.304688 316.582031 150.097656 C 321.230469 153.277344 326.886719 155.171875 332.972656 155.171875 C 348.53125 155.171875 361.109375 142.921875 361.917969 127.566406 C 358.910156 128.628906 355.730469 129.308594 352.371094 129.308594 " fill-opacity="1" fill-rule="nonzero"/><path fill="#f3e305" d="M 252.15625 174.570312 L 265.085938 122.84375 L 206.898438 193.964844 L 239.222656 200.429688 L 226.292969 252.15625 L 284.484375 181.035156 L 252.15625 174.570312 " fill-opacity="1" fill-rule="nonzero"/><path fill="#f7b60b" d="M 258.621094 187.5 L 232.757812 187.5 L 265.085938 122.84375 L 206.898438 193.964844 L 239.222656 200.429688 L 226.292969 252.15625 L 258.621094 187.5 " fill-opacity="1" fill-rule="nonzero"/><path fill="#d2dbda" d="M 103.449219 297.414062 L 25.863281 297.414062 C 18.714844 297.414062 12.929688 291.628906 12.929688 284.484375 C 12.929688 277.335938 18.714844 271.550781 25.863281 271.550781 L 103.449219 271.550781 C 110.59375 271.550781 116.378906 277.335938 116.378906 284.484375 C 116.378906 291.628906 110.59375 297.414062 103.449219 297.414062 " fill-opacity="1" fill-rule="nonzero"/><path fill="#d2dbda" d="M 116.378906 271.550781 L 12.929688 271.550781 C 5.785156 271.550781 0 265.769531 0 258.621094 C 0 251.472656 5.785156 245.691406 12.929688 245.691406 L 116.378906 245.691406 C 123.527344 245.691406 129.308594 251.472656 129.308594 258.621094 C 129.308594 265.769531 123.527344 271.550781 116.378906 271.550781 " fill-opacity="1" fill-rule="nonzero"/><path fill="#d2dbda" d="M 90.515625 323.277344 L 38.792969 323.277344 C 31.644531 323.277344 25.863281 317.492188 25.863281 310.34375 C 25.863281 303.199219 31.644531 297.414062 38.792969 297.414062 L 90.515625 297.414062 C 97.664062 297.414062 103.449219 303.199219 103.449219 310.34375 C 103.449219 317.492188 97.664062 323.277344 90.515625 323.277344 " fill-opacity="1" fill-rule="nonzero"/><path fill="#d2dbda" d="M 71.121094 349.136719 L 45.257812 349.136719 C 38.109375 349.136719 32.328125 343.355469 32.328125 336.207031 C 32.328125 329.058594 38.109375 323.277344 45.257812 323.277344 L 71.121094 323.277344 C 78.269531 323.277344 84.050781 329.058594 84.050781 336.207031 C 84.050781 343.355469 78.269531 349.136719 71.121094 349.136719 " fill-opacity="1" fill-rule="nonzero"/><path fill="#d2dbda" d="M 51.722656 375 L 38.792969 375 C 31.644531 375 25.863281 369.214844 25.863281 362.070312 C 25.863281 354.921875 31.644531 349.136719 38.792969 349.136719 L 51.722656 349.136719 C 58.871094 349.136719 64.65625 354.921875 64.65625 362.070312 C 64.65625 369.214844 58.871094 375 51.722656 375 " fill-opacity="1" fill-rule="nonzero"/><path fill="#8f9697" d="M 25.863281 271.550781 C 18.714844 271.550781 12.929688 277.335938 12.929688 284.484375 C 12.929688 291.628906 18.714844 297.414062 25.863281 297.414062 L 103.449219 297.414062 C 110.59375 297.414062 116.378906 291.628906 116.378906 284.484375 L 38.792969 284.484375 C 31.644531 284.484375 25.863281 278.699219 25.863281 271.550781 " fill-opacity="1" fill-rule="nonzero"/><path fill="#8f9697" d="M 12.929688 245.691406 C 5.785156 245.691406 0 251.472656 0 258.621094 C 0 265.769531 5.785156 271.550781 12.929688 271.550781 L 116.378906 271.550781 C 123.527344 271.550781 129.308594 265.769531 129.308594 258.621094 L 25.863281 258.621094 C 18.714844 258.621094 12.929688 252.835938 12.929688 245.691406 " fill-opacity="1" fill-rule="nonzero"/><path fill="#8f9697" d="M 38.792969 297.414062 C 31.644531 297.414062 25.863281 303.199219 25.863281 310.34375 C 25.863281 317.492188 31.644531 323.277344 38.792969 323.277344 L 90.515625 323.277344 C 97.664062 323.277344 103.449219 317.492188 103.449219 310.34375 L 51.722656 310.34375 C 44.578125 310.34375 38.792969 304.5625 38.792969 297.414062 " fill-opacity="1" fill-rule="nonzero"/><path fill="#8f9697" d="M 45.257812 323.277344 C 38.109375 323.277344 32.328125 329.058594 32.328125 336.207031 C 32.328125 343.355469 38.109375 349.136719 45.257812 349.136719 L 71.121094 349.136719 C 78.269531 349.136719 84.050781 343.355469 84.050781 336.207031 L 58.191406 336.207031 C 51.042969 336.207031 45.257812 330.421875 45.257812 323.277344 " fill-opacity="1" fill-rule="nonzero"/><path fill="#8f9697" d="M 38.792969 349.136719 C 31.644531 349.136719 25.863281 354.921875 25.863281 362.070312 C 25.863281 369.214844 31.644531 375 38.792969 375 L 51.722656 375 C 58.871094 375 64.65625 369.214844 64.65625 362.070312 L 51.722656 362.070312 C 44.578125 362.070312 38.792969 356.285156 38.792969 349.136719 " fill-opacity="1" fill-rule="nonzero"/><path fill="#d2dbda" d="M 109.914062 71.121094 C 108.753906 71.121094 107.617188 71.273438 106.503906 71.472656 C 102.085938 63.570312 93.75 58.191406 84.050781 58.191406 C 81.980469 58.191406 79.984375 58.492188 78.066406 58.949219 C 72.207031 50.6875 62.609375 45.257812 51.722656 45.257812 C 36.066406 45.257812 23.007812 56.394531 20.054688 71.195312 C 19.824219 71.171875 19.625 71.121094 19.398438 71.121094 C 8.6875 71.121094 0 79.808594 0 90.515625 C 0 101.226562 8.6875 109.914062 19.398438 109.914062 C 24.828125 109.914062 29.726562 107.664062 33.261719 104.054688 C 38.488281 107.714844 44.855469 109.914062 51.722656 109.914062 C 58.039062 109.914062 63.898438 108.019531 68.871094 104.886719 C 73.140625 108.019531 78.34375 109.914062 84.050781 109.914062 C 89.203125 109.914062 94.003906 108.375 98.042969 105.746094 C 101.328125 108.324219 105.417969 109.914062 109.914062 109.914062 C 120.621094 109.914062 129.308594 101.226562 129.308594 90.515625 C 129.308594 79.808594 120.621094 71.121094 109.914062 71.121094 " fill-opacity="1" fill-rule="nonzero"/><path fill="#8f9697" d="M 122.84375 90.515625 C 118.347656 90.515625 114.257812 88.925781 110.972656 86.351562 C 106.933594 88.976562 102.136719 90.515625 96.984375 90.515625 C 91.273438 90.515625 86.070312 88.621094 81.804688 85.492188 C 76.828125 88.621094 70.96875 90.515625 64.65625 90.515625 C 57.761719 90.515625 51.421875 88.320312 46.191406 84.65625 C 42.65625 88.269531 37.757812 90.515625 32.328125 90.515625 C 22.023438 90.515625 13.664062 82.433594 13.058594 72.28125 C 5.480469 74.910156 0 82.03125 0 90.515625 C 0 101.226562 8.6875 109.914062 19.398438 109.914062 C 24.828125 109.914062 29.726562 107.664062 33.261719 104.054688 C 38.488281 107.714844 44.855469 109.914062 51.722656 109.914062 C 58.039062 109.914062 63.898438 108.019531 68.871094 104.886719 C 73.140625 108.019531 78.34375 109.914062 84.050781 109.914062 C 89.203125 109.914062 94.003906 108.375 98.042969 105.746094 C 101.328125 108.324219 105.417969 109.914062 109.914062 109.914062 C 120.621094 109.914062 129.308594 101.226562 129.308594 90.515625 C 129.308594 90.113281 129.210938 89.757812 129.183594 89.355469 C 127.1875 90.0625 125.066406 90.515625 122.84375 90.515625 " fill-opacity="1" fill-rule="nonzero"/><path fill="#90d9f6" d="M 349.136719 310.34375 L 252.15625 310.34375 C 248.59375 310.34375 245.691406 307.441406 245.691406 303.878906 C 245.691406 300.316406 248.59375 297.414062 252.15625 297.414062 L 349.136719 297.414062 C 356.261719 297.414062 362.070312 291.605469 362.070312 284.484375 C 362.070312 277.359375 356.261719 271.550781 349.136719 271.550781 C 345.578125 271.550781 342.671875 268.648438 342.671875 265.085938 C 342.671875 261.523438 345.578125 258.621094 349.136719 258.621094 C 363.40625 258.621094 375 270.214844 375 284.484375 C 375 298.753906 363.40625 310.34375 349.136719 310.34375 " fill-opacity="1" fill-rule="nonzero"/><path fill="#90d9f6" d="M 278.015625 362.070312 L 232.757812 362.070312 C 229.199219 362.070312 226.292969 359.164062 226.292969 355.601562 C 226.292969 352.042969 229.199219 349.136719 232.757812 349.136719 L 278.015625 349.136719 C 281.578125 349.136719 284.484375 352.042969 284.484375 355.601562 C 284.484375 359.164062 281.578125 362.070312 278.015625 362.070312 " fill-opacity="1" fill-rule="nonzero"/><path fill="#90d9f6" d="M 303.878906 284.484375 L 258.621094 284.484375 C 255.058594 284.484375 252.15625 281.578125 252.15625 278.015625 C 252.15625 274.457031 255.058594 271.550781 258.621094 271.550781 L 303.878906 271.550781 C 307.441406 271.550781 310.34375 274.457031 310.34375 278.015625 C 310.34375 281.578125 307.441406 284.484375 303.878906 284.484375 " fill-opacity="1" fill-rule="nonzero"/><path fill="#90d9f6" d="M 316.808594 375 C 313.25 375 310.34375 372.09375 310.34375 368.535156 C 310.34375 364.972656 313.25 362.070312 316.808594 362.070312 C 323.933594 362.070312 329.742188 356.261719 329.742188 349.136719 C 329.742188 342.015625 323.933594 336.207031 316.808594 336.207031 L 278.015625 336.207031 C 274.457031 336.207031 271.550781 333.300781 271.550781 329.742188 C 271.550781 326.179688 274.457031 323.277344 278.015625 323.277344 L 316.808594 323.277344 C 331.078125 323.277344 342.671875 334.867188 342.671875 349.136719 C 342.671875 363.40625 331.078125 375 316.808594 375 " fill-opacity="1" fill-rule="nonzero"/><path fill="#90d9f6" d="M 187.5 310.34375 L 174.570312 310.34375 C 171.007812 310.34375 168.101562 307.441406 168.101562 303.878906 C 168.101562 300.316406 171.007812 297.414062 174.570312 297.414062 L 187.5 297.414062 C 191.0625 297.414062 193.964844 300.316406 193.964844 303.878906 C 193.964844 307.441406 191.0625 310.34375 187.5 310.34375 " fill-opacity="1" fill-rule="nonzero"/><path fill="#90d9f6" d="M 213.363281 284.484375 L 200.429688 284.484375 C 196.871094 284.484375 193.964844 281.578125 193.964844 278.015625 C 193.964844 274.457031 196.871094 271.550781 200.429688 271.550781 L 213.363281 271.550781 C 216.921875 271.550781 219.828125 274.457031 219.828125 278.015625 C 219.828125 281.578125 216.921875 284.484375 213.363281 284.484375 " fill-opacity="1" fill-rule="nonzero"/><path fill="#90d9f6" d="M 32.328125 148.707031 C 29.953125 148.707031 27.679688 147.394531 26.542969 145.144531 L 20.078125 132.214844 C 18.488281 129.007812 19.777344 125.117188 22.957031 123.527344 C 26.164062 121.910156 30.054688 123.222656 31.644531 126.40625 L 38.109375 139.335938 C 39.703125 142.542969 38.414062 146.433594 35.230469 148.023438 C 34.296875 148.480469 33.3125 148.707031 32.328125 148.707031 " fill-opacity="1" fill-rule="nonzero"/><path fill="#90d9f6" d="M 58.191406 148.707031 C 55.816406 148.707031 53.542969 147.394531 52.40625 145.144531 L 45.941406 132.214844 C 44.347656 129.007812 45.636719 125.117188 48.820312 123.527344 C 52.027344 121.910156 55.917969 123.222656 57.507812 126.40625 L 63.972656 139.335938 C 65.5625 142.542969 64.277344 146.433594 61.09375 148.023438 C 60.160156 148.480469 59.175781 148.707031 58.191406 148.707031 " fill-opacity="1" fill-rule="nonzero"/><path fill="#90d9f6" d="M 84.050781 148.707031 C 81.675781 148.707031 79.40625 147.394531 78.269531 145.144531 L 71.800781 132.214844 C 70.210938 129.007812 71.5 125.117188 74.683594 123.527344 C 77.890625 121.910156 81.777344 123.222656 83.371094 126.40625 L 89.835938 139.335938 C 91.425781 142.542969 90.136719 146.433594 86.957031 148.023438 C 86.023438 148.480469 85.035156 148.707031 84.050781 148.707031 " fill-opacity="1" fill-rule="nonzero"/><path fill="#90d9f6" d="M 109.914062 148.707031 C 107.539062 148.707031 105.265625 147.394531 104.128906 145.144531 L 97.664062 132.214844 C 96.074219 129.007812 97.363281 125.117188 100.542969 123.527344 C 103.75 121.910156 107.640625 123.222656 109.230469 126.40625 L 115.699219 139.335938 C 117.289062 142.542969 116 146.433594 112.816406 148.023438 C 111.882812 148.480469 110.898438 148.707031 109.914062 148.707031 " fill-opacity="1" fill-rule="nonzero"/><path fill="#90d9f6" d="M 45.257812 181.035156 C 42.882812 181.035156 40.613281 179.722656 39.476562 177.472656 L 33.007812 164.542969 C 31.417969 161.335938 32.707031 157.445312 35.890625 155.855469 C 39.097656 154.261719 42.984375 155.550781 44.578125 158.734375 L 51.042969 171.664062 C 52.632812 174.871094 51.34375 178.761719 48.164062 180.351562 C 47.230469 180.808594 46.242188 181.035156 45.257812 181.035156 " fill-opacity="1" fill-rule="nonzero"/><path fill="#90d9f6" d="M 71.121094 181.035156 C 68.746094 181.035156 66.472656 179.722656 65.335938 177.472656 L 58.871094 164.542969 C 57.28125 161.335938 58.570312 157.445312 61.75 155.855469 C 64.957031 154.261719 68.847656 155.550781 70.4375 158.734375 L 76.90625 171.664062 C 78.496094 174.871094 77.207031 178.761719 74.023438 180.351562 C 73.089844 180.808594 72.105469 181.035156 71.121094 181.035156 " fill-opacity="1" fill-rule="nonzero"/><path fill="#90d9f6" d="M 96.984375 181.035156 C 94.609375 181.035156 92.335938 179.722656 91.199219 177.472656 L 84.734375 164.542969 C 83.140625 161.335938 84.429688 157.445312 87.613281 155.855469 C 90.820312 154.261719 94.710938 155.550781 96.300781 158.734375 L 102.765625 171.664062 C 104.359375 174.871094 103.070312 178.761719 99.886719 180.351562 C 98.953125 180.808594 97.96875 181.035156 96.984375 181.035156 " fill-opacity="1" fill-rule="nonzero"/><path fill="#90d9f6" d="M 122.84375 181.035156 C 120.472656 181.035156 118.199219 179.722656 117.0625 177.472656 L 110.59375 164.542969 C 109.003906 161.335938 110.292969 157.445312 113.476562 155.855469 C 116.683594 154.261719 120.570312 155.550781 122.164062 158.734375 L 128.628906 171.664062 C 130.21875 174.871094 128.929688 178.761719 125.75 180.351562 C 124.816406 180.808594 123.828125 181.035156 122.84375 181.035156 " fill-opacity="1" fill-rule="nonzero"/><path fill="#90d9f6" d="M 58.191406 219.828125 C 55.816406 219.828125 53.542969 218.515625 52.40625 216.265625 L 45.941406 203.335938 C 44.347656 200.128906 45.636719 196.238281 48.820312 194.648438 C 52.027344 193.054688 55.917969 194.34375 57.507812 197.527344 L 63.972656 210.457031 C 65.5625 213.664062 64.277344 217.554688 61.09375 219.144531 C 60.160156 219.601562 59.175781 219.828125 58.191406 219.828125 " fill-opacity="1" fill-rule="nonzero"/><path fill="#90d9f6" d="M 84.050781 219.828125 C 81.675781 219.828125 79.40625 218.515625 78.269531 216.265625 L 71.800781 203.335938 C 70.210938 200.128906 71.5 196.238281 74.683594 194.648438 C 77.890625 193.054688 81.777344 194.34375 83.371094 197.527344 L 89.835938 210.457031 C 91.425781 213.664062 90.136719 217.554688 86.957031 219.144531 C 86.023438 219.601562 85.035156 219.828125 84.050781 219.828125 " fill-opacity="1" fill-rule="nonzero"/><path fill="#90d9f6" d="M 109.914062 219.828125 C 107.539062 219.828125 105.265625 218.515625 104.128906 216.265625 L 97.664062 203.335938 C 96.074219 200.128906 97.363281 196.238281 100.542969 194.648438 C 103.75 193.054688 107.640625 194.34375 109.230469 197.527344 L 115.699219 210.457031 C 117.289062 213.664062 116 217.554688 112.816406 219.144531 C 111.882812 219.601562 110.898438 219.828125 109.914062 219.828125 " fill-opacity="1" fill-rule="nonzero"/><path fill="#90d9f6" d="M 129.308594 213.363281 C 126.9375 213.363281 124.664062 212.046875 123.527344 209.800781 L 117.0625 196.871094 C 115.46875 193.664062 116.757812 189.773438 119.941406 188.183594 C 123.148438 186.566406 127.039062 187.878906 128.628906 191.0625 L 135.09375 203.992188 C 136.683594 207.199219 135.398438 211.089844 132.214844 212.679688 C 131.28125 213.132812 130.296875 213.363281 129.308594 213.363281 " fill-opacity="1" fill-rule="nonzero"/></svg>