<?xml version="1.0" standalone="no"?>
<!DOCTYPE svg PUBLIC "-//W3C//DTD SVG 20010904//EN"
 "http://www.w3.org/TR/2001/REC-SVG-20010904/DTD/svg10.dtd">
<svg version="1.0" xmlns="http://www.w3.org/2000/svg"
 width="64.000000pt" height="64.000000pt" viewBox="0 0 64.000000 64.000000"
 preserveAspectRatio="xMidYMid meet">

<g transform="translate(0.000000,64.000000) scale(0.100000,-0.100000)"
fill="#000000" stroke="none">
<path d="M170 601 c-44 -46 -60 -108 -41 -162 13 -37 8 -49 -20 -49 -53 0
-109 -58 -109 -112 0 -42 36 -86 80 -98 51 -14 122 -9 128 8 3 9 -14 12 -61
12 -83 0 -117 23 -117 79 0 52 34 84 85 79 35 -2 38 0 49 32 11 34 12 35 64
34 40 -1 52 2 52 13 0 58 91 121 157 108 65 -12 126 -98 109 -153 -4 -12 6
-26 29 -45 29 -23 35 -34 35 -67 0 -30 -6 -43 -26 -59 -24 -19 -40 -21 -161
-21 -103 0 -134 -3 -131 -12 6 -17 213 -23 269 -8 43 12 79 56 79 98 0 31 -26
79 -50 92 -14 8 -20 21 -20 46 0 143 -193 208 -282 94 l-25 -32 -12 31 c-7 16
-11 51 -9 78 4 65 -19 70 -72 14z m46 -40 c0 -28 8 -60 17 -75 22 -32 22 -31
-15 -32 -18 0 -41 -4 -50 -8 -16 -7 -18 -2 -18 41 0 48 16 84 50 110 8 7 15
13 15 13 0 0 0 -22 1 -49z"/>
<path d="M400 510 c0 -5 5 -10 10 -10 6 0 10 5 10 10 0 6 -4 10 -10 10 -5 0
-10 -4 -10 -10z"/>
<path d="M450 502 c0 -5 9 -17 19 -26 11 -10 23 -31 26 -47 4 -16 11 -29 16
-29 19 0 8 49 -17 79 -25 30 -44 40 -44 23z"/>
<path d="M240 190 c0 -5 5 -10 10 -10 6 0 10 5 10 10 0 6 -4 10 -10 10 -5 0
-10 -4 -10 -10z"/>
<path d="M82 127 c-25 -27 -28 -37 -9 -37 16 0 47 32 47 48 0 19 -14 14 -38
-11z"/>
<path d="M232 127 c-25 -27 -28 -37 -9 -37 17 0 59 44 50 53 -11 11 -18 8 -41
-16z"/>
<path d="M387 132 c-18 -20 -22 -42 -9 -42 14 0 53 46 45 53 -10 11 -19 8 -36
-11z"/>
<path d="M540 125 c-13 -14 -20 -28 -17 -32 8 -7 57 35 57 49 0 15 -16 8 -40
-17z"/>
<path d="M120 35 c-13 -14 -20 -28 -17 -32 8 -7 57 35 57 49 0 15 -16 8 -40
-17z"/>
<path d="M270 35 c-13 -14 -20 -28 -17 -32 8 -7 57 35 57 49 0 15 -16 8 -40
-17z"/>
<path d="M422 37 c-12 -13 -19 -26 -16 -30 10 -9 42 10 54 33 15 29 -10 26
-38 -3z"/>
</g>
</svg>
